<svg width="1280" height="290" viewBox="0 0 1280 290" fill="none" xmlns="http://www.w3.org/2000/svg">
<path d="M-41 245.744C52 351 146.888 173.282 363.5 201.244C609.5 233 868 223.756 952 167.5C1125.08 51.5895 1243.5 230.333 1323.5 260" stroke="white" stroke-width="20"/>
<path d="M575.24 11.14C576.027 12.0733 576.42 13.12 576.42 14.28C576.393 15.6133 575.933 16.7333 575.04 17.64C574.16 18.5333 573.087 18.98 571.82 18.98H566.56C565.627 18.98 565.08 18.7267 564.92 18.22C564.84 17.9933 564.8 17.6467 564.8 17.18V6.08C564.8 5.76 564.807 5.52667 564.82 5.38C564.847 5.23333 564.913 5.06 565.02 4.86C565.207 4.5 565.727 4.32 566.58 4.32H571.62C572.847 4.32 573.873 4.74667 574.7 5.6C575.567 6.46667 576 7.50667 576 8.72C576 9.6 575.747 10.4067 575.24 11.14ZM572.88 14.08C572.88 13.76 572.84 13.5067 572.76 13.32C572.693 13.1333 572.573 13 572.4 12.92C572.133 12.8133 571.76 12.76 571.28 12.76C570.8 12.76 570.44 12.6667 570.2 12.48C569.96 12.2933 569.84 11.9133 569.84 11.34C569.84 10.7533 569.96 10.3667 570.2 10.18C570.453 9.99333 570.867 9.9 571.44 9.9C571.973 9.9 572.293 9.76 572.4 9.48C572.44 9.33333 572.46 9.09333 572.46 8.76C572.46 8.42667 572.347 8.19333 572.12 8.06C571.907 7.92667 571.58 7.86 571.14 7.86H568.34V15.44H571.62C572.46 15.44 572.88 14.9867 572.88 14.08ZM577.73 10.22C577.73 9.91333 577.736 9.68667 577.75 9.54C577.776 9.38 577.836 9.2 577.93 9C578.116 8.65333 578.636 8.48 579.49 8.48C580.13 8.48 580.583 8.59333 580.85 8.82C581.076 9.00667 581.196 9.29333 581.21 9.68C581.223 9.81333 581.23 10.0067 581.23 10.26V17.26C581.23 17.5667 581.216 17.8 581.19 17.96C581.176 18.1067 581.116 18.28 581.01 18.48C580.836 18.8267 580.323 19 579.47 19C578.63 19 578.116 18.82 577.93 18.46C577.836 18.26 577.776 18.0867 577.75 17.94C577.736 17.7933 577.73 17.56 577.73 17.24V10.22ZM581.01 6.52C580.916 6.70667 580.743 6.84 580.49 6.92C580.236 7 579.896 7.04 579.47 7.04C579.056 7.04 578.723 7 578.47 6.92C578.216 6.84 578.036 6.7 577.93 6.5C577.836 6.3 577.776 6.12667 577.75 5.98C577.736 5.82 577.73 5.58667 577.73 5.28C577.73 4.97333 577.736 4.74667 577.75 4.6C577.776 4.44 577.836 4.26667 577.93 4.08C578.116 3.72 578.636 3.54 579.49 3.54C580.33 3.54 580.836 3.72 581.01 4.08C581.116 4.28 581.176 4.46 581.19 4.62C581.216 4.76667 581.23 4.99333 581.23 5.3C581.23 5.60667 581.216 5.84 581.19 6C581.176 6.14667 581.116 6.32 581.01 6.52ZM592.987 12.48C592.987 13.2933 592.781 13.9 592.367 14.3C591.967 14.6867 591.521 14.88 591.027 14.88H586.287C586.287 15.2533 586.507 15.5667 586.947 15.82C587.387 16.0733 587.827 16.2 588.267 16.2C589.041 16.2 589.647 16.12 590.087 15.96L590.307 15.88C590.627 15.7333 590.894 15.66 591.107 15.66C591.534 15.66 591.901 15.96 592.207 16.56C592.381 16.92 592.467 17.2267 592.467 17.48C592.467 18.6667 591.047 19.26 588.207 19.26C587.221 19.26 586.341 19.0933 585.567 18.76C584.807 18.4133 584.214 17.96 583.787 17.4C582.947 16.32 582.527 15.1133 582.527 13.78C582.527 12.1 583.067 10.76 584.147 9.76C585.241 8.74667 586.601 8.24 588.227 8.24C590.081 8.24 591.441 8.89333 592.307 10.2C592.761 10.8933 592.987 11.6533 592.987 12.48ZM588.767 13.06C589.274 13.06 589.527 12.8467 589.527 12.42C589.527 12.1133 589.407 11.8667 589.167 11.68C588.941 11.4933 588.607 11.4 588.167 11.4C587.741 11.4 587.314 11.58 586.887 11.94C586.461 12.2867 586.247 12.66 586.247 13.06H588.767ZM600.152 8.46C601.486 8.46 602.592 8.97333 603.472 10C604.366 11.0133 604.812 12.2533 604.812 13.72V17.24C604.812 17.5467 604.799 17.78 604.772 17.94C604.759 18.0867 604.706 18.2533 604.612 18.44C604.426 18.8 603.906 18.98 603.052 18.98C602.106 18.98 601.559 18.7333 601.412 18.24C601.332 18.0133 601.292 17.6733 601.292 17.22V13.7C601.292 13.1533 601.132 12.7267 600.812 12.42C600.506 12.1133 600.086 11.96 599.552 11.96C599.032 11.96 598.606 12.12 598.272 12.44C597.952 12.76 597.792 13.18 597.792 13.7V17.24C597.792 17.5467 597.779 17.78 597.752 17.94C597.739 18.0867 597.679 18.2533 597.572 18.44C597.399 18.8 596.886 18.98 596.032 18.98C595.192 18.98 594.679 18.8 594.492 18.44C594.399 18.24 594.339 18.0667 594.312 17.92C594.299 17.76 594.292 17.5267 594.292 17.22V10.14C594.292 9.84667 594.299 9.62667 594.312 9.48C594.339 9.32 594.406 9.14667 594.512 8.96C594.699 8.62667 595.212 8.46 596.052 8.46C596.866 8.46 597.366 8.61333 597.552 8.92C597.686 9.14667 597.752 9.42 597.752 9.74C597.806 9.64667 597.926 9.51333 598.112 9.34C598.299 9.16667 598.479 9.02667 598.652 8.92C599.106 8.61333 599.606 8.46 600.152 8.46ZM616.436 8.7C617.129 9.11333 617.476 9.55333 617.476 10.02C617.476 10.2867 617.342 10.6533 617.076 11.12L612.936 18.22C612.802 18.4467 612.589 18.6533 612.296 18.84C612.002 19.0133 611.709 19.1 611.416 19.1C611.136 19.1 610.862 19.0333 610.596 18.9C610.342 18.7533 610.162 18.6067 610.056 18.46L609.876 18.24L605.716 11.12C605.449 10.68 605.316 10.32 605.316 10.04C605.316 9.56 605.662 9.11333 606.356 8.7C606.862 8.40667 607.262 8.26 607.556 8.26C607.849 8.26 608.076 8.35333 608.236 8.54C608.409 8.71333 608.589 8.98 608.776 9.34L611.396 14.38L614.016 9.34C614.162 9.08667 614.269 8.90667 614.336 8.8C614.416 8.68 614.536 8.56667 614.696 8.46C614.856 8.34 615.069 8.28 615.336 8.28C615.602 8.28 615.969 8.42 616.436 8.7ZM628.124 12.48C628.124 13.2933 627.917 13.9 627.504 14.3C627.104 14.6867 626.657 14.88 626.164 14.88H621.424C621.424 15.2533 621.644 15.5667 622.084 15.82C622.524 16.0733 622.964 16.2 623.404 16.2C624.177 16.2 624.784 16.12 625.224 15.96L625.444 15.88C625.764 15.7333 626.031 15.66 626.244 15.66C626.671 15.66 627.037 15.96 627.344 16.56C627.517 16.92 627.604 17.2267 627.604 17.48C627.604 18.6667 626.184 19.26 623.344 19.26C622.357 19.26 621.477 19.0933 620.704 18.76C619.944 18.4133 619.351 17.96 618.924 17.4C618.084 16.32 617.664 15.1133 617.664 13.78C617.664 12.1 618.204 10.76 619.284 9.76C620.377 8.74667 621.737 8.24 623.364 8.24C625.217 8.24 626.577 8.89333 627.444 10.2C627.897 10.8933 628.124 11.6533 628.124 12.48ZM623.904 13.06C624.411 13.06 624.664 12.8467 624.664 12.42C624.664 12.1133 624.544 11.8667 624.304 11.68C624.077 11.4933 623.744 11.4 623.304 11.4C622.877 11.4 622.451 11.58 622.024 11.94C621.597 12.2867 621.384 12.66 621.384 13.06H623.904ZM635.289 8.46C636.622 8.46 637.729 8.97333 638.609 10C639.502 11.0133 639.949 12.2533 639.949 13.72V17.24C639.949 17.5467 639.936 17.78 639.909 17.94C639.896 18.0867 639.842 18.2533 639.749 18.44C639.562 18.8 639.042 18.98 638.189 18.98C637.242 18.98 636.696 18.7333 636.549 18.24C636.469 18.0133 636.429 17.6733 636.429 17.22V13.7C636.429 13.1533 636.269 12.7267 635.949 12.42C635.642 12.1133 635.222 11.96 634.689 11.96C634.169 11.96 633.742 12.12 633.409 12.44C633.089 12.76 632.929 13.18 632.929 13.7V17.24C632.929 17.5467 632.916 17.78 632.889 17.94C632.876 18.0867 632.816 18.2533 632.709 18.44C632.536 18.8 632.022 18.98 631.169 18.98C630.329 18.98 629.816 18.8 629.629 18.44C629.536 18.24 629.476 18.0667 629.449 17.92C629.436 17.76 629.429 17.5267 629.429 17.22V10.14C629.429 9.84667 629.436 9.62667 629.449 9.48C629.476 9.32 629.542 9.14667 629.649 8.96C629.836 8.62667 630.349 8.46 631.189 8.46C632.002 8.46 632.502 8.61333 632.689 8.92C632.822 9.14667 632.889 9.42 632.889 9.74C632.942 9.64667 633.062 9.51333 633.249 9.34C633.436 9.16667 633.616 9.02667 633.789 8.92C634.242 8.61333 634.742 8.46 635.289 8.46ZM646.238 18.96C644.891 18.96 643.771 18.4533 642.878 17.44C641.998 16.4133 641.558 15.1667 641.558 13.7V10.2C641.558 9.88 641.564 9.64667 641.578 9.5C641.604 9.35333 641.664 9.18 641.758 8.98C641.944 8.62 642.464 8.44 643.318 8.44C644.251 8.44 644.798 8.69333 644.958 9.2C645.038 9.41333 645.078 9.75333 645.078 10.22V13.72C645.078 14.2667 645.231 14.6933 645.538 15C645.858 15.3067 646.278 15.46 646.798 15.46C647.331 15.46 647.758 15.3 648.078 14.98C648.411 14.66 648.578 14.24 648.578 13.72V10.18C648.578 9.87333 648.584 9.64667 648.598 9.5C648.624 9.34 648.691 9.16 648.798 8.96C648.971 8.61333 649.484 8.44 650.338 8.44C651.178 8.44 651.691 8.62 651.878 8.98C651.971 9.18 652.024 9.36 652.038 9.52C652.064 9.66667 652.078 9.89333 652.078 10.2V17.28C652.078 17.5733 652.064 17.8 652.038 17.96C652.024 18.1067 651.964 18.2733 651.858 18.46C651.658 18.8067 651.144 18.98 650.318 18.98C649.504 18.98 649.004 18.82 648.818 18.5C648.684 18.2733 648.618 18 648.618 17.68C648.564 17.7733 648.444 17.9067 648.258 18.08C648.071 18.2533 647.891 18.4 647.718 18.52C647.264 18.8133 646.771 18.96 646.238 18.96ZM663.847 12.48C663.847 13.2933 663.64 13.9 663.227 14.3C662.827 14.6867 662.38 14.88 661.887 14.88H657.147C657.147 15.2533 657.367 15.5667 657.807 15.82C658.247 16.0733 658.687 16.2 659.127 16.2C659.9 16.2 660.507 16.12 660.947 15.96L661.167 15.88C661.487 15.7333 661.753 15.66 661.967 15.66C662.393 15.66 662.76 15.96 663.067 16.56C663.24 16.92 663.327 17.2267 663.327 17.48C663.327 18.6667 661.907 19.26 659.067 19.26C658.08 19.26 657.2 19.0933 656.427 18.76C655.667 18.4133 655.073 17.96 654.647 17.4C653.807 16.32 653.387 15.1133 653.387 13.78C653.387 12.1 653.927 10.76 655.007 9.76C656.1 8.74667 657.46 8.24 659.087 8.24C660.94 8.24 662.3 8.89333 663.167 10.2C663.62 10.8933 663.847 11.6533 663.847 12.48ZM659.627 13.06C660.133 13.06 660.387 12.8467 660.387 12.42C660.387 12.1133 660.267 11.8667 660.027 11.68C659.8 11.4933 659.467 11.4 659.027 11.4C658.6 11.4 658.173 11.58 657.747 11.94C657.32 12.2867 657.107 12.66 657.107 13.06H659.627ZM677.27 4.08C677.377 3.88 677.557 3.74 677.81 3.66C678.063 3.58 678.397 3.54 678.81 3.54C679.237 3.54 679.577 3.58 679.83 3.66C680.083 3.74 680.257 3.88 680.35 4.08C680.457 4.28 680.517 4.46 680.53 4.62C680.557 4.76667 680.57 4.99333 680.57 5.3V17.24C680.57 17.5467 680.557 17.78 680.53 17.94C680.517 18.0867 680.457 18.2533 680.35 18.44C680.15 18.8 679.583 18.98 678.65 18.98C677.73 18.98 677.217 18.6533 677.11 18C676.55 18.64 675.77 18.96 674.77 18.96C673.57 18.96 672.477 18.44 671.49 17.4C670.503 16.3467 670.01 15.1267 670.01 13.74C670.01 12.34 670.503 11.1133 671.49 10.06C672.49 9.00667 673.583 8.48 674.77 8.48C675.757 8.48 676.523 8.81333 677.07 9.48V5.28C677.07 4.97333 677.077 4.74667 677.09 4.6C677.117 4.44 677.177 4.26667 677.27 4.08ZM674.03 14.94C674.377 15.3 674.797 15.48 675.29 15.48C675.783 15.48 676.19 15.3 676.51 14.94C676.843 14.58 677.01 14.1867 677.01 13.76C677.01 13.32 676.85 12.9133 676.53 12.54C676.223 12.1667 675.803 11.98 675.27 11.98C674.737 11.98 674.31 12.1667 673.99 12.54C673.67 12.9 673.51 13.3 673.51 13.74C673.51 14.18 673.683 14.58 674.03 14.94ZM689.003 9.58C689.083 8.83333 689.61 8.46 690.583 8.46C691.103 8.46 691.49 8.5 691.743 8.58C691.997 8.66 692.17 8.8 692.263 9C692.37 9.2 692.43 9.38 692.443 9.54C692.47 9.68667 692.483 9.91333 692.483 10.22V17.22C692.483 17.5267 692.47 17.76 692.443 17.92C692.43 18.0667 692.377 18.24 692.283 18.44C692.097 18.7867 691.637 18.96 690.903 18.96C690.183 18.96 689.697 18.8733 689.443 18.7C689.203 18.5133 689.063 18.2467 689.023 17.9C688.53 18.6067 687.703 18.96 686.543 18.96C685.397 18.96 684.33 18.4333 683.343 17.38C682.357 16.3267 681.863 15.1067 681.863 13.72C681.863 12.32 682.357 11.1 683.343 10.06C684.343 9.00667 685.437 8.48 686.623 8.48C687.077 8.48 687.49 8.56 687.863 8.72C688.237 8.88 688.497 9.03333 688.643 9.18C688.79 9.31333 688.91 9.44667 689.003 9.58ZM685.363 13.74C685.363 14.18 685.537 14.58 685.883 14.94C686.23 15.2867 686.65 15.46 687.143 15.46C687.637 15.46 688.043 15.28 688.363 14.92C688.697 14.56 688.863 14.1667 688.863 13.74C688.863 13.3 688.703 12.8933 688.383 12.52C688.077 12.1467 687.657 11.96 687.123 11.96C686.603 11.96 686.177 12.1467 685.843 12.52C685.523 12.8933 685.363 13.3 685.363 13.74ZM699.937 8.46C701.271 8.46 702.377 8.97333 703.257 10C704.151 11.0133 704.597 12.2533 704.597 13.72V17.24C704.597 17.5467 704.584 17.78 704.557 17.94C704.544 18.0867 704.491 18.2533 704.397 18.44C704.211 18.8 703.691 18.98 702.837 18.98C701.891 18.98 701.344 18.7333 701.197 18.24C701.117 18.0133 701.077 17.6733 701.077 17.22V13.7C701.077 13.1533 700.917 12.7267 700.597 12.42C700.291 12.1133 699.871 11.96 699.337 11.96C698.817 11.96 698.391 12.12 698.057 12.44C697.737 12.76 697.577 13.18 697.577 13.7V17.24C697.577 17.5467 697.564 17.78 697.537 17.94C697.524 18.0867 697.464 18.2533 697.357 18.44C697.184 18.8 696.671 18.98 695.817 18.98C694.977 18.98 694.464 18.8 694.277 18.44C694.184 18.24 694.124 18.0667 694.097 17.92C694.084 17.76 694.077 17.5267 694.077 17.22V10.14C694.077 9.84667 694.084 9.62667 694.097 9.48C694.124 9.32 694.191 9.14667 694.297 8.96C694.484 8.62667 694.997 8.46 695.837 8.46C696.651 8.46 697.151 8.61333 697.337 8.92C697.471 9.14667 697.537 9.42 697.537 9.74C697.591 9.64667 697.711 9.51333 697.897 9.34C698.084 9.16667 698.264 9.02667 698.437 8.92C698.891 8.61333 699.391 8.46 699.937 8.46ZM706.286 18.06C706.033 17.9 705.906 17.6467 705.906 17.3C705.906 16.9533 706.16 16.4267 706.666 15.72C706.813 15.4933 707.046 15.38 707.366 15.38C707.7 15.38 708.146 15.5467 708.706 15.88C709.266 16.2 709.773 16.36 710.226 16.36C711.04 16.36 711.446 16.2 711.446 15.88C711.446 15.6267 711 15.44 710.106 15.32C709.266 15.2 708.433 14.8867 707.606 14.38C707.22 14.14 706.9 13.7667 706.646 13.26C706.393 12.74 706.266 12.1267 706.266 11.42C706.266 9.31333 707.713 8.26 710.606 8.26C711.553 8.26 712.526 8.48667 713.526 8.94C713.993 9.15333 714.226 9.42 714.226 9.74C714.226 10.06 714.08 10.4533 713.786 10.92C713.493 11.3867 713.193 11.62 712.886 11.62C712.726 11.62 712.426 11.52 711.986 11.32C711.56 11.12 711.093 11.02 710.586 11.02C709.8 11.02 709.406 11.1667 709.406 11.46C709.406 11.86 709.86 12.12 710.766 12.24C711.646 12.3333 712.5 12.5867 713.326 13C713.713 13.1867 714.033 13.5133 714.286 13.98C714.553 14.4333 714.686 15.0067 714.686 15.7C714.686 16.3933 714.553 16.9867 714.286 17.48C714.033 17.96 713.673 18.32 713.206 18.56C712.353 18.9733 711.28 19.18 709.986 19.18C708.706 19.18 707.473 18.8067 706.286 18.06Z" fill="#46BAD3"/>
<path d="M564 21H715.186V22H564V21Z" fill="#46BAD3"/>
<path d="M488.56 37.115L511.51 84.545C512.473 86.4717 512.955 87.9167 512.955 88.88C512.955 90.92 511.311 92.7617 508.025 94.405C506.098 95.3683 504.568 95.85 503.435 95.85C502.358 95.85 501.451 95.595 500.715 95.085C500.035 94.575 499.525 94.0367 499.185 93.47C498.901 92.9033 498.476 92.0533 497.91 90.92L493.49 81.74H469.945L465.525 90.92C464.958 92.0533 464.505 92.875 464.165 93.385C463.881 93.895 463.371 94.4333 462.635 95C461.955 95.51 461.048 95.765 459.915 95.765C458.838 95.765 457.336 95.2833 455.41 94.32C452.123 92.7333 450.48 90.92 450.48 88.88C450.48 87.9167 450.961 86.4717 451.925 84.545L474.875 37.03C475.498 35.7267 476.433 34.6783 477.68 33.885C478.983 33.0917 480.343 32.695 481.76 32.695C484.82 32.695 487.086 34.1683 488.56 37.115ZM481.675 57.515L476.065 69.16H487.37L481.675 57.515ZM552.525 51.225C555.471 52.9817 556.945 54.8517 556.945 56.835C556.945 57.9683 556.378 59.5267 555.245 61.51L537.65 91.685C537.083 92.6483 536.176 93.5267 534.93 94.32C533.683 95.0567 532.436 95.425 531.19 95.425C530 95.425 528.838 95.1417 527.705 94.575C526.628 93.9517 525.863 93.3283 525.41 92.705L524.645 91.77L506.965 61.51C505.831 59.64 505.265 58.11 505.265 56.92C505.265 54.88 506.738 52.9817 509.685 51.225C511.838 49.9783 513.538 49.355 514.785 49.355C516.031 49.355 516.995 49.7517 517.675 50.545C518.411 51.2817 519.176 52.415 519.97 53.945L531.105 75.365L542.24 53.945C542.863 52.8683 543.316 52.1033 543.6 51.65C543.94 51.14 544.45 50.6583 545.13 50.205C545.81 49.695 546.716 49.44 547.85 49.44C548.983 49.44 550.541 50.035 552.525 51.225ZM602.201 67.29C602.201 70.7467 601.322 73.325 599.566 75.025C597.866 76.6683 595.967 77.49 593.871 77.49H573.726C573.726 79.0767 574.661 80.4083 576.531 81.485C578.401 82.5617 580.271 83.1 582.141 83.1C585.427 83.1 588.006 82.76 589.876 82.08L590.811 81.74C592.171 81.1167 593.304 80.805 594.211 80.805C596.024 80.805 597.582 82.08 598.886 84.63C599.622 86.16 599.991 87.4633 599.991 88.54C599.991 93.5833 593.956 96.105 581.886 96.105C577.692 96.105 573.952 95.3967 570.666 93.98C567.436 92.5067 564.914 90.58 563.101 88.2C559.531 83.61 557.746 78.4817 557.746 72.815C557.746 65.675 560.041 59.98 564.631 55.73C569.277 51.4233 575.057 49.27 581.971 49.27C589.847 49.27 595.627 52.0467 599.311 57.6C601.237 60.5467 602.201 63.7767 602.201 67.29ZM584.266 69.755C586.419 69.755 587.496 68.8483 587.496 67.035C587.496 65.7317 586.986 64.6833 585.966 63.89C585.002 63.0967 583.586 62.7 581.716 62.7C579.902 62.7 578.089 63.465 576.276 64.995C574.462 66.4683 573.556 68.055 573.556 69.755H584.266ZM632.651 50.205C638.318 50.205 643.021 52.3867 646.761 56.75C650.558 61.0567 652.456 66.3267 652.456 72.56V87.52C652.456 88.8233 652.4 89.815 652.286 90.495C652.23 91.1183 652.003 91.8267 651.606 92.62C650.813 94.15 648.603 94.915 644.976 94.915C640.953 94.915 638.63 93.8667 638.006 91.77C637.666 90.8067 637.496 89.3617 637.496 87.435V72.475C637.496 70.1517 636.816 68.3383 635.456 67.035C634.153 65.7317 632.368 65.08 630.101 65.08C627.891 65.08 626.078 65.76 624.661 67.12C623.301 68.48 622.621 70.265 622.621 72.475V87.52C622.621 88.8233 622.565 89.815 622.451 90.495C622.395 91.1183 622.14 91.8267 621.686 92.62C620.95 94.15 618.768 94.915 615.141 94.915C611.571 94.915 609.39 94.15 608.596 92.62C608.2 91.77 607.945 91.0333 607.831 90.41C607.775 89.73 607.746 88.7383 607.746 87.435V57.345C607.746 56.0983 607.775 55.1633 607.831 54.54C607.945 53.86 608.228 53.1233 608.681 52.33C609.475 50.9133 611.656 50.205 615.226 50.205C618.683 50.205 620.808 50.8567 621.601 52.16C622.168 53.1233 622.451 54.285 622.451 55.645C622.678 55.2483 623.188 54.6817 623.981 53.945C624.775 53.2083 625.54 52.6133 626.276 52.16C628.203 50.8567 630.328 50.205 632.651 50.205ZM684.474 65.25L678.949 64.91V76.64C678.949 78.17 679.176 79.275 679.629 79.955C680.139 80.635 681.046 80.975 682.349 80.975C683.709 80.975 684.729 81.0317 685.409 81.145C686.146 81.2017 686.911 81.4567 687.704 81.91C689.007 82.6467 689.659 84.545 689.659 87.605C689.659 91.175 688.866 93.3567 687.279 94.15C686.429 94.5467 685.664 94.8017 684.984 94.915C684.361 94.9717 683.426 95 682.179 95C676.286 95 671.809 93.6683 668.749 91.005C665.689 88.3417 664.159 83.8367 664.159 77.49V64.91C663.082 65.08 661.921 65.165 660.674 65.165C659.427 65.165 658.379 64.6833 657.529 63.72C656.736 62.7567 656.339 61.1133 656.339 58.79C656.339 56.4667 656.481 54.795 656.764 53.775C657.047 52.6983 657.444 51.9333 657.954 51.48C658.861 50.7433 659.994 50.375 661.354 50.375L664.159 50.715V41.96C664.159 40.6567 664.187 39.6933 664.244 39.07C664.357 38.4467 664.641 37.7667 665.094 37.03C665.831 35.6133 668.012 34.905 671.639 34.905C675.492 34.905 677.787 35.9533 678.524 38.05C678.807 38.9567 678.949 40.4017 678.949 42.385V50.715C681.442 50.4883 683.312 50.375 684.559 50.375C685.862 50.375 686.826 50.4317 687.449 50.545C688.129 50.6017 688.894 50.8567 689.744 51.31C691.217 52.0467 691.954 54.2283 691.954 57.855C691.954 61.425 691.189 63.6067 689.659 64.4C688.809 64.7967 688.044 65.0517 687.364 65.165C686.741 65.2217 685.777 65.25 684.474 65.25ZM716.538 94.83C710.814 94.83 706.054 92.6767 702.258 88.37C698.518 84.0067 696.648 78.7083 696.648 72.475V57.6C696.648 56.24 696.676 55.2483 696.733 54.625C696.846 54.0017 697.101 53.265 697.498 52.415C698.291 50.885 700.501 50.12 704.128 50.12C708.094 50.12 710.418 51.1967 711.098 53.35C711.438 54.2567 711.608 55.7017 711.608 57.685V72.56C711.608 74.8833 712.259 76.6967 713.563 78C714.923 79.3033 716.708 79.955 718.918 79.955C721.184 79.955 722.998 79.275 724.358 77.915C725.774 76.555 726.483 74.77 726.483 72.56V57.515C726.483 56.2117 726.511 55.2483 726.568 54.625C726.681 53.945 726.964 53.18 727.418 52.33C728.154 50.8567 730.336 50.12 733.963 50.12C737.533 50.12 739.714 50.885 740.508 52.415C740.904 53.265 741.131 54.03 741.188 54.71C741.301 55.3333 741.358 56.2967 741.358 57.6V87.69C741.358 88.9367 741.301 89.9 741.188 90.58C741.131 91.2033 740.876 91.9117 740.423 92.705C739.573 94.1783 737.391 94.915 733.878 94.915C730.421 94.915 728.296 94.235 727.503 92.875C726.936 91.9117 726.653 90.75 726.653 89.39C726.426 89.7867 725.916 90.3533 725.123 91.09C724.329 91.8267 723.564 92.45 722.828 92.96C720.901 94.2067 718.804 94.83 716.538 94.83ZM778.625 50.715C779.702 51.055 780.58 51.65 781.26 52.5C781.997 53.2933 782.365 54.5967 782.365 56.41C782.365 58.2233 781.827 60.2067 780.75 62.36C779.674 64.5133 778.115 65.59 776.075 65.59C775.055 65.59 774.064 65.3633 773.1 64.91C772.194 64.4567 770.975 64.23 769.445 64.23C767.915 64.23 766.47 64.7683 765.11 65.845C763.807 66.9217 763.155 68.225 763.155 69.755V87.605C763.155 88.9083 763.099 89.9 762.985 90.58C762.929 91.2033 762.674 91.94 762.22 92.79C761.37 94.2633 759.16 95 755.59 95C752.87 95 750.915 94.5183 749.725 93.555C748.819 92.7617 748.309 91.5433 748.195 89.9C748.195 89.3333 748.195 88.5117 748.195 87.435V57.6C748.195 56.2967 748.224 55.3333 748.28 54.71C748.394 54.03 748.649 53.2933 749.045 52.5C749.839 50.97 752.049 50.205 755.675 50.205C759.075 50.205 761.2 50.8567 762.05 52.16C762.674 53.0667 762.985 54.0017 762.985 54.965C763.269 54.5683 763.665 54.0867 764.175 53.52C764.742 52.9533 765.904 52.1883 767.66 51.225C769.417 50.2617 770.947 49.78 772.25 49.78C773.61 49.78 774.744 49.865 775.65 50.035C776.557 50.1483 777.549 50.375 778.625 50.715ZM827.65 67.29C827.65 70.7467 826.771 73.325 825.015 75.025C823.315 76.6683 821.416 77.49 819.32 77.49H799.175C799.175 79.0767 800.11 80.4083 801.98 81.485C803.85 82.5617 805.72 83.1 807.59 83.1C810.876 83.1 813.455 82.76 815.325 82.08L816.26 81.74C817.62 81.1167 818.753 80.805 819.66 80.805C821.473 80.805 823.031 82.08 824.335 84.63C825.071 86.16 825.44 87.4633 825.44 88.54C825.44 93.5833 819.405 96.105 807.335 96.105C803.141 96.105 799.401 95.3967 796.115 93.98C792.885 92.5067 790.363 90.58 788.55 88.2C784.98 83.61 783.195 78.4817 783.195 72.815C783.195 65.675 785.49 59.98 790.08 55.73C794.726 51.4233 800.506 49.27 807.42 49.27C815.296 49.27 821.076 52.0467 824.76 57.6C826.686 60.5467 827.65 63.7767 827.65 67.29ZM809.715 69.755C811.868 69.755 812.945 68.8483 812.945 67.035C812.945 65.7317 812.435 64.6833 811.415 63.89C810.451 63.0967 809.035 62.7 807.165 62.7C805.351 62.7 803.538 63.465 801.725 64.995C799.911 66.4683 799.005 68.055 799.005 69.755H809.715Z" fill="white"/>
<path d="M456.468 166.68L457.998 165.575C459.924 164.442 461.284 163.875 462.078 163.875C463.834 163.875 465.733 165.462 467.773 168.635C469.019 170.618 469.643 172.205 469.643 173.395C469.643 174.585 469.246 175.577 468.453 176.37C467.716 177.163 466.838 177.872 465.818 178.495C464.798 179.118 463.806 179.713 462.843 180.28C461.936 180.847 460.038 181.583 457.148 182.49C454.258 183.397 451.453 183.85 448.733 183.85C446.069 183.85 443.349 183.51 440.573 182.83C437.853 182.093 435.019 180.903 432.073 179.26C429.183 177.56 426.576 175.52 424.253 173.14C421.929 170.703 420.003 167.615 418.473 163.875C416.999 160.078 416.263 155.97 416.263 151.55C416.263 147.13 416.999 143.135 418.473 139.565C419.946 135.938 421.816 132.963 424.083 130.64C426.406 128.26 429.041 126.277 431.988 124.69C437.541 121.63 443.123 120.1 448.733 120.1C451.396 120.1 454.088 120.525 456.808 121.375C459.584 122.168 461.681 122.99 463.098 123.84L465.138 125.03C466.158 125.653 466.951 126.163 467.518 126.56C468.991 127.75 469.728 129.11 469.728 130.64C469.728 132.113 469.133 133.672 467.943 135.315C465.733 138.375 463.749 139.905 461.993 139.905C460.973 139.905 459.528 139.282 457.658 138.035C455.278 136.108 452.104 135.145 448.138 135.145C444.454 135.145 440.828 136.42 437.258 138.97C435.558 140.217 434.141 141.973 433.008 144.24C431.874 146.507 431.308 149.085 431.308 151.975C431.308 154.808 431.874 157.358 433.008 159.625C434.141 161.892 435.586 163.677 437.343 164.98C440.799 167.473 444.398 168.72 448.138 168.72C449.894 168.72 451.538 168.493 453.068 168.04C454.654 167.587 455.788 167.133 456.468 166.68ZM473.953 160.645C473.953 153.845 476.333 148.235 481.093 143.815C485.853 139.395 491.293 137.185 497.413 137.185C503.533 137.185 508.945 139.395 513.648 143.815C518.351 148.178 520.703 153.76 520.703 160.56C520.703 165.263 519.485 169.457 517.048 173.14C514.611 176.767 511.636 179.458 508.123 181.215C504.666 182.915 501.068 183.765 497.328 183.765C493.588 183.765 489.961 182.858 486.448 181.045C482.935 179.175 479.96 176.455 477.523 172.885C475.143 169.258 473.953 165.178 473.953 160.645ZM491.718 166.765C493.531 168.125 495.373 168.805 497.243 168.805C499.113 168.805 500.983 168.097 502.853 166.68C504.723 165.263 505.658 163.167 505.658 160.39C505.658 157.613 504.78 155.545 503.023 154.185C501.266 152.825 499.368 152.145 497.328 152.145C495.288 152.145 493.39 152.853 491.633 154.27C489.876 155.687 488.998 157.783 488.998 160.56C488.998 163.28 489.905 165.348 491.718 166.765ZM540.815 144.155C543.478 140.132 546.68 138.12 550.42 138.12C556.2 138.12 560.507 140.585 563.34 145.515C563.963 144.665 564.7 143.787 565.55 142.88C566.457 141.917 567.873 140.897 569.8 139.82C571.727 138.687 573.71 138.12 575.75 138.12C580.283 138.12 584.08 139.877 587.14 143.39C590.2 146.847 591.73 152.598 591.73 160.645V175.52C591.73 176.823 591.673 177.815 591.56 178.495C591.503 179.118 591.248 179.855 590.795 180.705C590.058 182.235 587.877 183 584.25 183C580.68 183 578.498 182.207 577.705 180.62C577.308 179.77 577.053 179.033 576.94 178.41C576.883 177.73 576.855 176.738 576.855 175.435V160.56C576.855 155.63 575.098 153.165 571.585 153.165C569.602 153.165 568.242 153.817 567.505 155.12C566.825 156.423 566.485 158.265 566.485 160.645V175.52C566.485 176.88 566.428 177.872 566.315 178.495C566.258 179.118 566.003 179.855 565.55 180.705C564.757 182.235 562.547 183 558.92 183C555.35 183 553.168 182.207 552.375 180.62C551.978 179.77 551.723 179.033 551.61 178.41C551.553 177.73 551.525 176.738 551.525 175.435V160.56C551.525 155.63 549.768 153.165 546.255 153.165C542.855 153.165 541.155 155.63 541.155 160.56V175.605C541.155 176.908 541.098 177.9 540.985 178.58C540.928 179.203 540.673 179.94 540.22 180.79C539.37 182.263 537.16 183 533.59 183C530.02 183 527.838 182.235 527.045 180.705C526.648 179.855 526.393 179.118 526.28 178.495C526.223 177.872 526.195 176.88 526.195 175.52V145.6C526.195 144.297 526.223 143.333 526.28 142.71C526.393 142.03 526.677 141.293 527.13 140.5C527.98 138.97 529.992 138.205 533.165 138.205C536.338 138.205 538.407 138.715 539.37 139.735C540.333 140.755 540.815 142.228 540.815 144.155ZM598.495 195.155V145.515C598.495 144.212 598.523 143.248 598.58 142.625C598.693 142.002 598.948 141.293 599.345 140.5C600.138 138.97 602.036 138.205 605.04 138.205C608.043 138.205 610.055 138.602 611.075 139.395C612.151 140.132 612.775 141.237 612.945 142.71C615.098 139.763 618.47 138.29 623.06 138.29C627.706 138.29 632.098 140.472 636.235 144.835C640.371 149.198 642.44 154.27 642.44 160.05C642.44 165.83 640.371 170.902 636.235 175.265C632.155 179.628 627.791 181.81 623.145 181.81C618.498 181.81 615.126 180.507 613.03 177.9V195.07C613.03 196.373 612.973 197.337 612.86 197.96C612.803 198.583 612.548 199.292 612.095 200.085C611.698 200.935 610.99 201.53 609.97 201.87C608.95 202.21 607.561 202.38 605.805 202.38C604.048 202.38 602.631 202.21 601.555 201.87C600.535 201.53 599.798 200.963 599.345 200.17C598.948 199.377 598.693 198.668 598.58 198.045C598.523 197.422 598.495 196.458 598.495 195.155ZM615.325 155.12C614.021 156.65 613.37 158.322 613.37 160.135C613.37 161.948 614.021 163.62 615.325 165.15C616.685 166.623 618.385 167.36 620.425 167.36C622.521 167.36 624.278 166.623 625.695 165.15C627.168 163.677 627.905 162.005 627.905 160.135C627.905 158.265 627.225 156.593 625.865 155.12C624.505 153.59 622.72 152.825 620.51 152.825C618.356 152.825 616.628 153.59 615.325 155.12ZM677.037 142.965C677.377 139.792 679.616 138.205 683.752 138.205C685.962 138.205 687.606 138.375 688.682 138.715C689.759 139.055 690.496 139.65 690.892 140.5C691.346 141.35 691.601 142.115 691.657 142.795C691.771 143.418 691.827 144.382 691.827 145.685V175.435C691.827 176.738 691.771 177.73 691.657 178.41C691.601 179.033 691.374 179.77 690.977 180.62C690.184 182.093 688.229 182.83 685.112 182.83C682.052 182.83 679.984 182.462 678.907 181.725C677.887 180.932 677.292 179.798 677.122 178.325C675.026 181.328 671.512 182.83 666.582 182.83C661.709 182.83 657.176 180.592 652.982 176.115C648.789 171.638 646.692 166.453 646.692 160.56C646.692 154.61 648.789 149.425 652.982 145.005C657.232 140.528 661.879 138.29 666.922 138.29C668.849 138.29 670.606 138.63 672.192 139.31C673.779 139.99 674.884 140.642 675.507 141.265C676.131 141.832 676.641 142.398 677.037 142.965ZM661.567 160.645C661.567 162.515 662.304 164.215 663.777 165.745C665.251 167.218 667.036 167.955 669.132 167.955C671.229 167.955 672.957 167.19 674.317 165.66C675.734 164.13 676.442 162.458 676.442 160.645C676.442 158.775 675.762 157.047 674.402 155.46C673.099 153.873 671.314 153.08 669.047 153.08C666.837 153.08 665.024 153.873 663.607 155.46C662.247 157.047 661.567 158.775 661.567 160.645ZM726.992 177.39C724.839 180.223 721.41 181.64 716.707 181.64C712.004 181.64 707.584 179.487 703.447 175.18C699.367 170.817 697.327 165.745 697.327 159.965C697.327 154.185 699.395 149.113 703.532 144.75C707.669 140.387 712.202 138.205 717.132 138.205C719.059 138.205 720.815 138.573 722.402 139.31C723.989 139.99 725.065 140.642 725.632 141.265C726.255 141.832 726.737 142.37 727.077 142.88C727.247 141.293 727.814 140.103 728.777 139.31C729.797 138.46 731.412 138.035 733.622 138.035C735.832 138.035 737.447 138.205 738.467 138.545C739.487 138.885 740.195 139.48 740.592 140.33C741.045 141.123 741.3 141.832 741.357 142.455C741.47 143.078 741.527 144.042 741.527 145.345V180.535C741.527 187.052 739.26 192.293 734.727 196.26C730.194 200.283 725.094 202.295 719.427 202.295C715.12 202.295 711.012 201.247 707.102 199.15C703.192 197.053 701.237 195.155 701.237 193.455C701.237 191.245 702.087 189.29 703.787 187.59C704.864 186.4 705.685 185.578 706.252 185.125C706.875 184.672 707.584 184.445 708.377 184.445C709.17 184.445 709.992 184.785 710.842 185.465C713.562 187.562 716.509 188.61 719.682 188.61C721.835 188.61 723.592 187.76 724.952 186.06C726.312 184.36 726.992 182.32 726.992 179.94V177.39ZM711.862 160.05C711.862 161.863 712.57 163.507 713.987 164.98C715.46 166.453 717.217 167.19 719.257 167.19C721.354 167.19 723.082 166.453 724.442 164.98C725.802 163.45 726.482 161.807 726.482 160.05C726.482 158.237 725.83 156.565 724.527 155.035C723.224 153.448 721.467 152.655 719.257 152.655C717.047 152.655 715.262 153.42 713.902 154.95C712.542 156.48 711.862 158.18 711.862 160.05ZM773.229 138.205C778.895 138.205 783.599 140.387 787.339 144.75C791.135 149.057 793.034 154.327 793.034 160.56V175.52C793.034 176.823 792.977 177.815 792.864 178.495C792.807 179.118 792.58 179.827 792.184 180.62C791.39 182.15 789.18 182.915 785.554 182.915C781.53 182.915 779.207 181.867 778.584 179.77C778.244 178.807 778.074 177.362 778.074 175.435V160.475C778.074 158.152 777.394 156.338 776.034 155.035C774.73 153.732 772.945 153.08 770.679 153.08C768.469 153.08 766.655 153.76 765.239 155.12C763.879 156.48 763.199 158.265 763.199 160.475V175.52C763.199 176.823 763.142 177.815 763.029 178.495C762.972 179.118 762.717 179.827 762.264 180.62C761.527 182.15 759.345 182.915 755.719 182.915C752.149 182.915 749.967 182.15 749.174 180.62C748.777 179.77 748.522 179.033 748.409 178.41C748.352 177.73 748.324 176.738 748.324 175.435V145.345C748.324 144.098 748.352 143.163 748.409 142.54C748.522 141.86 748.805 141.123 749.259 140.33C750.052 138.913 752.234 138.205 755.804 138.205C759.26 138.205 761.385 138.857 762.179 140.16C762.745 141.123 763.029 142.285 763.029 143.645C763.255 143.248 763.765 142.682 764.559 141.945C765.352 141.208 766.117 140.613 766.854 140.16C768.78 138.857 770.905 138.205 773.229 138.205ZM799.872 145.685C799.872 144.382 799.9 143.418 799.957 142.795C800.07 142.115 800.325 141.35 800.722 140.5C801.515 139.027 803.725 138.29 807.352 138.29C810.072 138.29 811.998 138.772 813.132 139.735C814.095 140.528 814.605 141.747 814.662 143.39C814.718 143.957 814.747 144.778 814.747 145.855V175.605C814.747 176.908 814.69 177.9 814.577 178.58C814.52 179.203 814.265 179.94 813.812 180.79C813.075 182.263 810.893 183 807.267 183C803.697 183 801.515 182.235 800.722 180.705C800.325 179.855 800.07 179.118 799.957 178.495C799.9 177.872 799.872 176.88 799.872 175.52V145.685ZM813.812 129.96C813.415 130.753 812.678 131.32 811.602 131.66C810.525 132 809.08 132.17 807.267 132.17C805.51 132.17 804.093 132 803.017 131.66C801.94 131.32 801.175 130.725 800.722 129.875C800.325 129.025 800.07 128.288 799.957 127.665C799.9 126.985 799.872 125.993 799.872 124.69C799.872 123.387 799.9 122.423 799.957 121.8C800.07 121.12 800.325 120.383 800.722 119.59C801.515 118.06 803.725 117.295 807.352 117.295C810.922 117.295 813.075 118.06 813.812 119.59C814.265 120.44 814.52 121.205 814.577 121.885C814.69 122.508 814.747 123.472 814.747 124.775C814.747 126.078 814.69 127.07 814.577 127.75C814.52 128.373 814.265 129.11 813.812 129.96ZM864.717 155.29C864.717 158.747 863.838 161.325 862.082 163.025C860.382 164.668 858.483 165.49 856.387 165.49H836.242C836.242 167.077 837.177 168.408 839.047 169.485C840.917 170.562 842.787 171.1 844.657 171.1C847.943 171.1 850.522 170.76 852.392 170.08L853.327 169.74C854.687 169.117 855.82 168.805 856.727 168.805C858.54 168.805 860.098 170.08 861.402 172.63C862.138 174.16 862.507 175.463 862.507 176.54C862.507 181.583 856.472 184.105 844.402 184.105C840.208 184.105 836.468 183.397 833.182 181.98C829.952 180.507 827.43 178.58 825.617 176.2C822.047 171.61 820.262 166.482 820.262 160.815C820.262 153.675 822.557 147.98 827.147 143.73C831.793 139.423 837.573 137.27 844.487 137.27C852.363 137.27 858.143 140.047 861.827 145.6C863.753 148.547 864.717 151.777 864.717 155.29ZM846.782 157.755C848.935 157.755 850.012 156.848 850.012 155.035C850.012 153.732 849.502 152.683 848.482 151.89C847.518 151.097 846.102 150.7 844.232 150.7C842.418 150.7 840.605 151.465 838.792 152.995C836.978 154.468 836.072 156.055 836.072 157.755H846.782Z" fill="white"/>
<path d="M641.041 115.85C641.041 116.867 640.783 117.625 640.266 118.125C639.766 118.608 639.208 118.85 638.591 118.85H632.666C632.666 119.317 632.941 119.708 633.491 120.025C634.041 120.342 634.591 120.5 635.141 120.5C636.108 120.5 636.866 120.4 637.416 120.2L637.691 120.1C638.091 119.917 638.425 119.825 638.691 119.825C639.225 119.825 639.683 120.2 640.066 120.95C640.283 121.4 640.391 121.783 640.391 122.1C640.391 123.583 638.616 124.325 635.066 124.325C633.833 124.325 632.733 124.117 631.766 123.7C630.816 123.267 630.075 122.7 629.541 122C628.491 120.65 627.966 119.142 627.966 117.475C627.966 115.375 628.641 113.7 629.991 112.45C631.358 111.183 633.058 110.55 635.091 110.55C637.408 110.55 639.108 111.367 640.191 113C640.758 113.867 641.041 114.817 641.041 115.85ZM635.766 116.575C636.4 116.575 636.716 116.308 636.716 115.775C636.716 115.392 636.566 115.083 636.266 114.85C635.983 114.617 635.566 114.5 635.016 114.5C634.483 114.5 633.95 114.725 633.416 115.175C632.883 115.608 632.616 116.075 632.616 116.575H635.766ZM650.078 115.25L648.453 115.15V118.6C648.453 119.05 648.52 119.375 648.653 119.575C648.803 119.775 649.07 119.875 649.453 119.875C649.853 119.875 650.153 119.892 650.353 119.925C650.57 119.942 650.795 120.017 651.028 120.15C651.412 120.367 651.603 120.925 651.603 121.825C651.603 122.875 651.37 123.517 650.903 123.75C650.653 123.867 650.428 123.942 650.228 123.975C650.045 123.992 649.77 124 649.403 124C647.67 124 646.353 123.608 645.453 122.825C644.553 122.042 644.103 120.717 644.103 118.85V115.15C643.787 115.2 643.445 115.225 643.078 115.225C642.712 115.225 642.403 115.083 642.153 114.8C641.92 114.517 641.803 114.033 641.803 113.35C641.803 112.667 641.845 112.175 641.928 111.875C642.012 111.558 642.128 111.333 642.278 111.2C642.545 110.983 642.878 110.875 643.278 110.875L644.103 110.975V108.4C644.103 108.017 644.112 107.733 644.128 107.55C644.162 107.367 644.245 107.167 644.378 106.95C644.595 106.533 645.237 106.325 646.303 106.325C647.437 106.325 648.112 106.633 648.328 107.25C648.412 107.517 648.453 107.942 648.453 108.525V110.975C649.187 110.908 649.737 110.875 650.103 110.875C650.487 110.875 650.77 110.892 650.953 110.925C651.153 110.942 651.378 111.017 651.628 111.15C652.062 111.367 652.278 112.008 652.278 113.075C652.278 114.125 652.053 114.767 651.603 115C651.353 115.117 651.128 115.192 650.928 115.225C650.745 115.242 650.462 115.25 650.078 115.25Z" fill="white"/>
</svg>
