<svg width="646" height="203" viewBox="0 0 646 203" fill="none" xmlns="http://www.w3.org/2000/svg">
<path d="M186.26 5.38L191.66 16.54C191.887 16.9933 192 17.3333 192 17.56C192 18.04 191.613 18.4733 190.84 18.86C190.387 19.0867 190.027 19.2 189.76 19.2C189.507 19.2 189.293 19.14 189.12 19.02C188.96 18.9 188.84 18.7733 188.76 18.64C188.693 18.5067 188.593 18.3067 188.46 18.04L187.42 15.88H181.88L180.84 18.04C180.707 18.3067 180.6 18.5 180.52 18.62C180.453 18.74 180.333 18.8667 180.16 19C180 19.12 179.787 19.18 179.52 19.18C179.267 19.18 178.913 19.0667 178.46 18.84C177.687 18.4667 177.3 18.04 177.3 17.56C177.3 17.3333 177.413 16.9933 177.64 16.54L183.04 5.36C183.187 5.05333 183.407 4.80667 183.7 4.62C184.007 4.43333 184.327 4.34 184.66 4.34C185.38 4.34 185.913 4.68667 186.26 5.38ZM184.64 10.18L183.32 12.92H185.98L184.64 10.18ZM206.113 12L204.813 11.92V14.68C204.813 15.04 204.866 15.3 204.973 15.46C205.093 15.62 205.306 15.7 205.613 15.7C205.933 15.7 206.173 15.7133 206.333 15.74C206.506 15.7533 206.68 15.8133 206.853 15.92C207.173 16.0933 207.333 16.54 207.333 17.26C207.333 18.1 207.146 18.6133 206.773 18.8C206.573 18.8933 206.393 18.9533 206.233 18.98C206.086 18.9933 205.866 19 205.573 19C204.24 19 203.2 18.6533 202.453 17.96C201.706 17.2667 201.333 16.24 201.333 14.88V11.92C200.693 11.9733 200.16 12 199.733 12L197.913 11.92V14.68C197.913 15.04 197.966 15.3 198.073 15.46C198.193 15.62 198.406 15.7 198.713 15.7C199.033 15.7 199.273 15.7133 199.433 15.74C199.606 15.7533 199.786 15.8133 199.973 15.92C200.28 16.0933 200.433 16.54 200.433 17.26C200.433 18.1 200.246 18.6133 199.873 18.8C199.673 18.8933 199.493 18.9533 199.333 18.98C199.186 18.9933 198.966 19 198.673 19C197.34 19 196.3 18.6533 195.553 17.96C194.806 17.2667 194.433 16.24 194.433 14.88V11.92C194.166 11.96 193.886 11.98 193.593 11.98C193.313 11.98 193.073 11.8667 192.873 11.64C192.686 11.4133 192.593 11.0267 192.593 10.48C192.593 9.93333 192.626 9.54 192.693 9.3C192.76 9.04667 192.853 8.86667 192.973 8.76C193.186 8.58667 193.453 8.5 193.773 8.5L194.433 8.58V6.52C194.433 6.21333 194.44 5.98667 194.453 5.84C194.48 5.69333 194.546 5.53333 194.653 5.36C194.826 5.02667 195.34 4.86 196.193 4.86C197.1 4.86 197.64 5.10667 197.813 5.6C197.88 5.81333 197.913 6.15333 197.913 6.62V8.52C198.54 8.50667 199.133 8.5 199.693 8.5L201.333 8.52V6.52C201.333 6.21333 201.34 5.98667 201.353 5.84C201.38 5.69333 201.44 5.53333 201.533 5.36C201.72 5.02667 202.24 4.86 203.093 4.86C204 4.86 204.533 5.10667 204.693 5.6C204.773 5.81333 204.813 6.15333 204.813 6.62V8.58C205.4 8.52667 205.84 8.5 206.133 8.5C206.44 8.5 206.666 8.51333 206.813 8.54C206.973 8.55333 207.146 8.61333 207.333 8.72C207.693 8.89333 207.873 9.40667 207.873 10.26C207.873 11.1 207.693 11.6133 207.333 11.8C207.133 11.8933 206.953 11.9533 206.793 11.98C206.646 11.9933 206.42 12 206.113 12ZM219.132 12.48C219.132 13.2933 218.925 13.9 218.512 14.3C218.112 14.6867 217.665 14.88 217.172 14.88H212.432C212.432 15.2533 212.652 15.5667 213.092 15.82C213.532 16.0733 213.972 16.2 214.412 16.2C215.185 16.2 215.792 16.12 216.232 15.96L216.452 15.88C216.772 15.7333 217.039 15.66 217.252 15.66C217.679 15.66 218.045 15.96 218.352 16.56C218.525 16.92 218.612 17.2267 218.612 17.48C218.612 18.6667 217.192 19.26 214.352 19.26C213.365 19.26 212.485 19.0933 211.712 18.76C210.952 18.4133 210.359 17.96 209.932 17.4C209.092 16.32 208.672 15.1133 208.672 13.78C208.672 12.1 209.212 10.76 210.292 9.76C211.385 8.74667 212.745 8.24 214.372 8.24C216.225 8.24 217.585 8.89333 218.452 10.2C218.905 10.8933 219.132 11.6533 219.132 12.48ZM214.912 13.06C215.419 13.06 215.672 12.8467 215.672 12.42C215.672 12.1133 215.552 11.8667 215.312 11.68C215.085 11.4933 214.752 11.4 214.312 11.4C213.885 11.4 213.459 11.58 213.032 11.94C212.605 12.2867 212.392 12.66 212.392 13.06H214.912ZM226.297 8.46C227.63 8.46 228.737 8.97333 229.617 10C230.51 11.0133 230.957 12.2533 230.957 13.72V17.24C230.957 17.5467 230.943 17.78 230.917 17.94C230.903 18.0867 230.85 18.2533 230.757 18.44C230.57 18.8 230.05 18.98 229.197 18.98C228.25 18.98 227.703 18.7333 227.557 18.24C227.477 18.0133 227.437 17.6733 227.437 17.22V13.7C227.437 13.1533 227.277 12.7267 226.957 12.42C226.65 12.1133 226.23 11.96 225.697 11.96C225.177 11.96 224.75 12.12 224.417 12.44C224.097 12.76 223.937 13.18 223.937 13.7V17.24C223.937 17.5467 223.923 17.78 223.897 17.94C223.883 18.0867 223.823 18.2533 223.717 18.44C223.543 18.8 223.03 18.98 222.177 18.98C221.337 18.98 220.823 18.8 220.637 18.44C220.543 18.24 220.483 18.0667 220.457 17.92C220.443 17.76 220.437 17.5267 220.437 17.22V10.14C220.437 9.84667 220.443 9.62667 220.457 9.48C220.483 9.32 220.55 9.14667 220.657 8.96C220.843 8.62667 221.357 8.46 222.197 8.46C223.01 8.46 223.51 8.61333 223.697 8.92C223.83 9.14667 223.897 9.42 223.897 9.74C223.95 9.64667 224.07 9.51333 224.257 9.34C224.443 9.16667 224.623 9.02667 224.797 8.92C225.25 8.61333 225.75 8.46 226.297 8.46ZM238.49 12L237.19 11.92V14.68C237.19 15.04 237.244 15.3 237.35 15.46C237.47 15.62 237.684 15.7 237.99 15.7C238.31 15.7 238.55 15.7133 238.71 15.74C238.884 15.7533 239.064 15.8133 239.25 15.92C239.557 16.0933 239.71 16.54 239.71 17.26C239.71 18.1 239.524 18.6133 239.15 18.8C238.95 18.8933 238.77 18.9533 238.61 18.98C238.464 18.9933 238.244 19 237.95 19C236.564 19 235.51 18.6867 234.79 18.06C234.07 17.4333 233.71 16.3733 233.71 14.88V11.92C233.457 11.96 233.184 11.98 232.89 11.98C232.597 11.98 232.35 11.8667 232.15 11.64C231.964 11.4133 231.87 11.0267 231.87 10.48C231.87 9.93333 231.904 9.54 231.97 9.3C232.037 9.04667 232.13 8.86667 232.25 8.76C232.464 8.58667 232.73 8.5 233.05 8.5L233.71 8.58V6.52C233.71 6.21333 233.717 5.98667 233.73 5.84C233.757 5.69333 233.824 5.53333 233.93 5.36C234.104 5.02667 234.617 4.86 235.47 4.86C236.377 4.86 236.917 5.10667 237.09 5.6C237.157 5.81333 237.19 6.15333 237.19 6.62V8.58C237.777 8.52667 238.217 8.5 238.51 8.5C238.817 8.5 239.044 8.51333 239.19 8.54C239.35 8.55333 239.53 8.61333 239.73 8.72C240.077 8.89333 240.25 9.40667 240.25 10.26C240.25 11.1 240.07 11.6133 239.71 11.8C239.51 11.8933 239.33 11.9533 239.17 11.98C239.024 11.9933 238.797 12 238.49 12ZM241.355 10.22C241.355 9.91333 241.361 9.68667 241.375 9.54C241.401 9.38 241.461 9.2 241.555 9C241.741 8.65333 242.261 8.48 243.115 8.48C243.755 8.48 244.208 8.59333 244.475 8.82C244.701 9.00667 244.821 9.29333 244.835 9.68C244.848 9.81333 244.855 10.0067 244.855 10.26V17.26C244.855 17.5667 244.841 17.8 244.815 17.96C244.801 18.1067 244.741 18.28 244.635 18.48C244.461 18.8267 243.948 19 243.095 19C242.255 19 241.741 18.82 241.555 18.46C241.461 18.26 241.401 18.0867 241.375 17.94C241.361 17.7933 241.355 17.56 241.355 17.24V10.22ZM244.635 6.52C244.541 6.70667 244.368 6.84 244.115 6.92C243.861 7 243.521 7.04 243.095 7.04C242.681 7.04 242.348 7 242.095 6.92C241.841 6.84 241.661 6.7 241.555 6.5C241.461 6.3 241.401 6.12667 241.375 5.98C241.361 5.82 241.355 5.58667 241.355 5.28C241.355 4.97333 241.361 4.74667 241.375 4.6C241.401 4.44 241.461 4.26667 241.555 4.08C241.741 3.72 242.261 3.54 243.115 3.54C243.955 3.54 244.461 3.72 244.635 4.08C244.741 4.28 244.801 4.46 244.815 4.62C244.841 4.76667 244.855 4.99333 244.855 5.3C244.855 5.60667 244.841 5.84 244.815 6C244.801 6.14667 244.741 6.32 244.635 6.52ZM246.152 13.74C246.152 12.14 246.712 10.82 247.832 9.78C248.952 8.74 250.232 8.22 251.672 8.22C253.112 8.22 254.386 8.74 255.492 9.78C256.599 10.8067 257.152 12.12 257.152 13.72C257.152 14.8267 256.866 15.8133 256.292 16.68C255.719 17.5333 255.019 18.1667 254.192 18.58C253.379 18.98 252.532 19.18 251.652 19.18C250.772 19.18 249.919 18.9667 249.092 18.54C248.266 18.1 247.566 17.46 246.992 16.62C246.432 15.7667 246.152 14.8067 246.152 13.74ZM250.332 15.18C250.759 15.5 251.192 15.66 251.632 15.66C252.072 15.66 252.512 15.4933 252.952 15.16C253.392 14.8267 253.612 14.3333 253.612 13.68C253.612 13.0267 253.406 12.54 252.992 12.22C252.579 11.9 252.132 11.74 251.652 11.74C251.172 11.74 250.726 11.9067 250.312 12.24C249.899 12.5733 249.692 13.0667 249.692 13.72C249.692 14.36 249.906 14.8467 250.332 15.18ZM264.305 8.46C265.638 8.46 266.745 8.97333 267.625 10C268.518 11.0133 268.965 12.2533 268.965 13.72V17.24C268.965 17.5467 268.951 17.78 268.925 17.94C268.911 18.0867 268.858 18.2533 268.765 18.44C268.578 18.8 268.058 18.98 267.205 18.98C266.258 18.98 265.711 18.7333 265.565 18.24C265.485 18.0133 265.445 17.6733 265.445 17.22V13.7C265.445 13.1533 265.285 12.7267 264.965 12.42C264.658 12.1133 264.238 11.96 263.705 11.96C263.185 11.96 262.758 12.12 262.425 12.44C262.105 12.76 261.945 13.18 261.945 13.7V17.24C261.945 17.5467 261.931 17.78 261.905 17.94C261.891 18.0867 261.831 18.2533 261.725 18.44C261.551 18.8 261.038 18.98 260.185 18.98C259.345 18.98 258.831 18.8 258.645 18.44C258.551 18.24 258.491 18.0667 258.465 17.92C258.451 17.76 258.445 17.5267 258.445 17.22V10.14C258.445 9.84667 258.451 9.62667 258.465 9.48C258.491 9.32 258.558 9.14667 258.665 8.96C258.851 8.62667 259.365 8.46 260.205 8.46C261.018 8.46 261.518 8.61333 261.705 8.92C261.838 9.14667 261.905 9.42 261.905 9.74C261.958 9.64667 262.078 9.51333 262.265 9.34C262.451 9.16667 262.631 9.02667 262.805 8.92C263.258 8.61333 263.758 8.46 264.305 8.46ZM270.513 15.86C270.633 15.6467 270.827 15.5 271.093 15.42C271.36 15.3267 271.787 15.28 272.373 15.28C272.96 15.28 273.38 15.4133 273.633 15.68C273.9 15.9333 274.033 16.4333 274.033 17.18C274.033 17.46 274.013 17.72 273.973 17.96C273.853 19.0933 273.48 20.08 272.853 20.92C272.227 21.76 271.493 22.18 270.653 22.18C270.56 22.18 270.473 22.1067 270.393 21.96C270.327 21.8267 270.293 21.6467 270.293 21.42C270.293 21.2067 270.32 21.0333 270.373 20.9C270.44 20.7667 270.52 20.68 270.613 20.64C270.707 20.6133 270.8 20.56 270.893 20.48C271 20.4133 271.14 20.24 271.313 19.96C271.487 19.68 271.587 19.36 271.613 19C271.187 18.9467 270.853 18.8067 270.613 18.58C270.387 18.34 270.273 17.96 270.273 17.44C270.287 16.9067 270.3 16.5667 270.313 16.42C270.34 16.26 270.407 16.0733 270.513 15.86ZM291.018 8.7C291.711 9.11333 292.058 9.55333 292.058 10.02C292.058 10.2867 291.924 10.6533 291.658 11.12L287.518 18.22C287.384 18.4467 287.171 18.6533 286.878 18.84C286.584 19.0133 286.291 19.1 285.998 19.1C285.718 19.1 285.444 19.0333 285.178 18.9C284.924 18.7533 284.744 18.6067 284.638 18.46L284.458 18.24L280.298 11.12C280.031 10.68 279.898 10.32 279.898 10.04C279.898 9.56 280.244 9.11333 280.938 8.7C281.444 8.40667 281.844 8.26 282.138 8.26C282.431 8.26 282.658 8.35333 282.818 8.54C282.991 8.71333 283.171 8.98 283.358 9.34L285.978 14.38L288.598 9.34C288.744 9.08667 288.851 8.90667 288.918 8.8C288.998 8.68 289.118 8.56667 289.278 8.46C289.438 8.34 289.651 8.28 289.918 8.28C290.184 8.28 290.551 8.42 291.018 8.7ZM292.246 13.74C292.246 12.14 292.806 10.82 293.926 9.78C295.046 8.74 296.326 8.22 297.766 8.22C299.206 8.22 300.479 8.74 301.586 9.78C302.693 10.8067 303.246 12.12 303.246 13.72C303.246 14.8267 302.959 15.8133 302.386 16.68C301.813 17.5333 301.113 18.1667 300.286 18.58C299.473 18.98 298.626 19.18 297.746 19.18C296.866 19.18 296.013 18.9667 295.186 18.54C294.359 18.1 293.659 17.46 293.086 16.62C292.526 15.7667 292.246 14.8067 292.246 13.74ZM296.426 15.18C296.853 15.5 297.286 15.66 297.726 15.66C298.166 15.66 298.606 15.4933 299.046 15.16C299.486 14.8267 299.706 14.3333 299.706 13.68C299.706 13.0267 299.499 12.54 299.086 12.22C298.673 11.9 298.226 11.74 297.746 11.74C297.266 11.74 296.819 11.9067 296.406 12.24C295.993 12.5733 295.786 13.0667 295.786 13.72C295.786 14.36 295.999 14.8467 296.426 15.18ZM309.218 18.96C307.872 18.96 306.752 18.4533 305.858 17.44C304.978 16.4133 304.538 15.1667 304.538 13.7V10.2C304.538 9.88 304.545 9.64667 304.558 9.5C304.585 9.35333 304.645 9.18 304.738 8.98C304.925 8.62 305.445 8.44 306.298 8.44C307.232 8.44 307.778 8.69333 307.938 9.2C308.018 9.41333 308.058 9.75333 308.058 10.22V13.72C308.058 14.2667 308.212 14.6933 308.518 15C308.838 15.3067 309.258 15.46 309.778 15.46C310.312 15.46 310.738 15.3 311.058 14.98C311.392 14.66 311.558 14.24 311.558 13.72V10.18C311.558 9.87333 311.565 9.64667 311.578 9.5C311.605 9.34 311.672 9.16 311.778 8.96C311.952 8.61333 312.465 8.44 313.318 8.44C314.158 8.44 314.672 8.62 314.858 8.98C314.952 9.18 315.005 9.36 315.018 9.52C315.045 9.66667 315.058 9.89333 315.058 10.2V17.28C315.058 17.5733 315.045 17.8 315.018 17.96C315.005 18.1067 314.945 18.2733 314.838 18.46C314.638 18.8067 314.125 18.98 313.298 18.98C312.485 18.98 311.985 18.82 311.798 18.5C311.665 18.2733 311.598 18 311.598 17.68C311.545 17.7733 311.425 17.9067 311.238 18.08C311.052 18.2533 310.872 18.4 310.698 18.52C310.245 18.8133 309.752 18.96 309.218 18.96ZM316.747 18.06C316.494 17.9 316.367 17.6467 316.367 17.3C316.367 16.9533 316.621 16.4267 317.127 15.72C317.274 15.4933 317.507 15.38 317.827 15.38C318.161 15.38 318.607 15.5467 319.167 15.88C319.727 16.2 320.234 16.36 320.687 16.36C321.501 16.36 321.907 16.2 321.907 15.88C321.907 15.6267 321.461 15.44 320.567 15.32C319.727 15.2 318.894 14.8867 318.067 14.38C317.681 14.14 317.361 13.7667 317.107 13.26C316.854 12.74 316.727 12.1267 316.727 11.42C316.727 9.31333 318.174 8.26 321.067 8.26C322.014 8.26 322.987 8.48667 323.987 8.94C324.454 9.15333 324.687 9.42 324.687 9.74C324.687 10.06 324.541 10.4533 324.247 10.92C323.954 11.3867 323.654 11.62 323.347 11.62C323.187 11.62 322.887 11.52 322.447 11.32C322.021 11.12 321.554 11.02 321.047 11.02C320.261 11.02 319.867 11.1667 319.867 11.46C319.867 11.86 320.321 12.12 321.227 12.24C322.107 12.3333 322.961 12.5867 323.787 13C324.174 13.1867 324.494 13.5133 324.747 13.98C325.014 14.4333 325.147 15.0067 325.147 15.7C325.147 16.3933 325.014 16.9867 324.747 17.48C324.494 17.96 324.134 18.32 323.667 18.56C322.814 18.9733 321.741 19.18 320.447 19.18C319.167 19.18 317.934 18.8067 316.747 18.06ZM341.671 12.48C341.671 13.2933 341.464 13.9 341.051 14.3C340.651 14.6867 340.204 14.88 339.711 14.88H334.971C334.971 15.2533 335.191 15.5667 335.631 15.82C336.071 16.0733 336.511 16.2 336.951 16.2C337.724 16.2 338.331 16.12 338.771 15.96L338.991 15.88C339.311 15.7333 339.578 15.66 339.791 15.66C340.218 15.66 340.584 15.96 340.891 16.56C341.064 16.92 341.151 17.2267 341.151 17.48C341.151 18.6667 339.731 19.26 336.891 19.26C335.904 19.26 335.024 19.0933 334.251 18.76C333.491 18.4133 332.898 17.96 332.471 17.4C331.631 16.32 331.211 15.1133 331.211 13.78C331.211 12.1 331.751 10.76 332.831 9.76C333.924 8.74667 335.284 8.24 336.911 8.24C338.764 8.24 340.124 8.89333 340.991 10.2C341.444 10.8933 341.671 11.6533 341.671 12.48ZM337.451 13.06C337.958 13.06 338.211 12.8467 338.211 12.42C338.211 12.1133 338.091 11.8667 337.851 11.68C337.624 11.4933 337.291 11.4 336.851 11.4C336.424 11.4 335.998 11.58 335.571 11.94C335.144 12.2867 334.931 12.66 334.931 13.06H337.451ZM348.836 8.46C350.169 8.46 351.276 8.97333 352.156 10C353.049 11.0133 353.496 12.2533 353.496 13.72V17.24C353.496 17.5467 353.482 17.78 353.456 17.94C353.442 18.0867 353.389 18.2533 353.296 18.44C353.109 18.8 352.589 18.98 351.736 18.98C350.789 18.98 350.242 18.7333 350.096 18.24C350.016 18.0133 349.976 17.6733 349.976 17.22V13.7C349.976 13.1533 349.816 12.7267 349.496 12.42C349.189 12.1133 348.769 11.96 348.236 11.96C347.716 11.96 347.289 12.12 346.956 12.44C346.636 12.76 346.476 13.18 346.476 13.7V17.24C346.476 17.5467 346.462 17.78 346.436 17.94C346.422 18.0867 346.362 18.2533 346.256 18.44C346.082 18.8 345.569 18.98 344.716 18.98C343.876 18.98 343.362 18.8 343.176 18.44C343.082 18.24 343.022 18.0667 342.996 17.92C342.982 17.76 342.976 17.5267 342.976 17.22V10.14C342.976 9.84667 342.982 9.62667 342.996 9.48C343.022 9.32 343.089 9.14667 343.196 8.96C343.382 8.62667 343.896 8.46 344.736 8.46C345.549 8.46 346.049 8.61333 346.236 8.92C346.369 9.14667 346.436 9.42 346.436 9.74C346.489 9.64667 346.609 9.51333 346.796 9.34C346.982 9.16667 347.162 9.02667 347.336 8.92C347.789 8.61333 348.289 8.46 348.836 8.46ZM361.029 12L359.729 11.92V14.68C359.729 15.04 359.783 15.3 359.889 15.46C360.009 15.62 360.223 15.7 360.529 15.7C360.849 15.7 361.089 15.7133 361.249 15.74C361.423 15.7533 361.603 15.8133 361.789 15.92C362.096 16.0933 362.249 16.54 362.249 17.26C362.249 18.1 362.063 18.6133 361.689 18.8C361.489 18.8933 361.309 18.9533 361.149 18.98C361.003 18.9933 360.783 19 360.489 19C359.103 19 358.049 18.6867 357.329 18.06C356.609 17.4333 356.249 16.3733 356.249 14.88V11.92C355.996 11.96 355.723 11.98 355.429 11.98C355.136 11.98 354.889 11.8667 354.689 11.64C354.503 11.4133 354.409 11.0267 354.409 10.48C354.409 9.93333 354.443 9.54 354.509 9.3C354.576 9.04667 354.669 8.86667 354.789 8.76C355.003 8.58667 355.269 8.5 355.589 8.5L356.249 8.58V6.52C356.249 6.21333 356.256 5.98667 356.269 5.84C356.296 5.69333 356.363 5.53333 356.469 5.36C356.643 5.02667 357.156 4.86 358.009 4.86C358.916 4.86 359.456 5.10667 359.629 5.6C359.696 5.81333 359.729 6.15333 359.729 6.62V8.58C360.316 8.52667 360.756 8.5 361.049 8.5C361.356 8.5 361.583 8.51333 361.729 8.54C361.889 8.55333 362.069 8.61333 362.269 8.72C362.616 8.89333 362.789 9.40667 362.789 10.26C362.789 11.1 362.609 11.6133 362.249 11.8C362.049 11.8933 361.869 11.9533 361.709 11.98C361.563 11.9933 361.336 12 361.029 12ZM371.054 8.58C371.307 8.66 371.514 8.8 371.674 9C371.847 9.18667 371.934 9.49333 371.934 9.92C371.934 10.3467 371.807 10.8133 371.554 11.32C371.3 11.8267 370.934 12.08 370.454 12.08C370.214 12.08 369.98 12.0267 369.754 11.92C369.54 11.8133 369.254 11.76 368.894 11.76C368.534 11.76 368.194 11.8867 367.874 12.14C367.567 12.3933 367.414 12.7 367.414 13.06V17.26C367.414 17.5667 367.4 17.8 367.374 17.96C367.36 18.1067 367.3 18.28 367.194 18.48C366.994 18.8267 366.474 19 365.634 19C364.994 19 364.534 18.8867 364.254 18.66C364.04 18.4733 363.92 18.1867 363.894 17.8C363.894 17.6667 363.894 17.4733 363.894 17.22V10.2C363.894 9.89333 363.9 9.66667 363.914 9.52C363.94 9.36 364 9.18667 364.094 9C364.28 8.64 364.8 8.46 365.654 8.46C366.454 8.46 366.954 8.61333 367.154 8.92C367.3 9.13333 367.374 9.35333 367.374 9.58C367.44 9.48667 367.534 9.37333 367.654 9.24C367.787 9.10667 368.06 8.92667 368.474 8.7C368.887 8.47333 369.247 8.36 369.554 8.36C369.874 8.36 370.14 8.38 370.354 8.42C370.567 8.44667 370.8 8.5 371.054 8.58ZM382.589 12.48C382.589 13.2933 382.382 13.9 381.969 14.3C381.569 14.6867 381.122 14.88 380.629 14.88H375.889C375.889 15.2533 376.109 15.5667 376.549 15.82C376.989 16.0733 377.429 16.2 377.869 16.2C378.642 16.2 379.249 16.12 379.689 15.96L379.909 15.88C380.229 15.7333 380.496 15.66 380.709 15.66C381.136 15.66 381.502 15.96 381.809 16.56C381.982 16.92 382.069 17.2267 382.069 17.48C382.069 18.6667 380.649 19.26 377.809 19.26C376.822 19.26 375.942 19.0933 375.169 18.76C374.409 18.4133 373.816 17.96 373.389 17.4C372.549 16.32 372.129 15.1133 372.129 13.78C372.129 12.1 372.669 10.76 373.749 9.76C374.842 8.74667 376.202 8.24 377.829 8.24C379.682 8.24 381.042 8.89333 381.909 10.2C382.362 10.8933 382.589 11.6533 382.589 12.48ZM378.369 13.06C378.876 13.06 379.129 12.8467 379.129 12.42C379.129 12.1133 379.009 11.8667 378.769 11.68C378.542 11.4933 378.209 11.4 377.769 11.4C377.342 11.4 376.916 11.58 376.489 11.94C376.062 12.2867 375.849 12.66 375.849 13.06H378.369ZM389.154 15.48H392.574C393.107 15.48 393.487 15.5467 393.714 15.68C393.954 15.8133 394.114 16.0067 394.194 16.26C394.274 16.5133 394.314 16.8467 394.314 17.26C394.314 17.6733 394.274 18.0067 394.194 18.26C394.114 18.5133 393.974 18.6933 393.774 18.8C393.574 18.8933 393.394 18.9533 393.234 18.98C393.087 18.9933 392.86 19 392.554 19H385.334C384.867 19 384.46 18.8267 384.114 18.48C383.767 18.1333 383.594 17.72 383.594 17.24C383.594 16.76 383.767 16.3533 384.114 16.02C384.46 15.6733 384.994 15.18 385.714 14.54C386.434 13.9 387.087 13.3267 387.674 12.82C388.26 12.3 388.58 12.0133 388.634 11.96H385.814C385.054 11.96 384.574 11.8333 384.374 11.58C384.147 11.2867 384.034 10.9 384.034 10.42C384.034 9.94 384.067 9.58667 384.134 9.36C384.2 9.12 384.28 8.94667 384.374 8.84C384.467 8.72 384.6 8.62667 384.774 8.56C385 8.49333 385.347 8.46 385.814 8.46H392.314C392.78 8.46 393.187 8.62667 393.534 8.96C393.88 9.29333 394.054 9.71333 394.054 10.22C394.054 10.7133 393.854 11.1533 393.454 11.54C393.054 11.9267 391.62 13.24 389.154 15.48ZM407.731 4.08C407.838 3.88 408.018 3.74 408.271 3.66C408.524 3.58 408.858 3.54 409.271 3.54C409.698 3.54 410.038 3.58 410.291 3.66C410.544 3.74 410.718 3.88 410.811 4.08C410.918 4.28 410.978 4.46 410.991 4.62C411.018 4.76667 411.031 4.99333 411.031 5.3V17.24C411.031 17.5467 411.018 17.78 410.991 17.94C410.978 18.0867 410.918 18.2533 410.811 18.44C410.611 18.8 410.044 18.98 409.111 18.98C408.191 18.98 407.678 18.6533 407.571 18C407.011 18.64 406.231 18.96 405.231 18.96C404.031 18.96 402.938 18.44 401.951 17.4C400.964 16.3467 400.471 15.1267 400.471 13.74C400.471 12.34 400.964 11.1133 401.951 10.06C402.951 9.00667 404.044 8.48 405.231 8.48C406.218 8.48 406.984 8.81333 407.531 9.48V5.28C407.531 4.97333 407.538 4.74667 407.551 4.6C407.578 4.44 407.638 4.26667 407.731 4.08ZM404.491 14.94C404.838 15.3 405.258 15.48 405.751 15.48C406.244 15.48 406.651 15.3 406.971 14.94C407.304 14.58 407.471 14.1867 407.471 13.76C407.471 13.32 407.311 12.9133 406.991 12.54C406.684 12.1667 406.264 11.98 405.731 11.98C405.198 11.98 404.771 12.1667 404.451 12.54C404.131 12.9 403.971 13.3 403.971 13.74C403.971 14.18 404.144 14.58 404.491 14.94ZM419.464 9.58C419.544 8.83333 420.071 8.46 421.044 8.46C421.564 8.46 421.951 8.5 422.204 8.58C422.458 8.66 422.631 8.8 422.724 9C422.831 9.2 422.891 9.38 422.904 9.54C422.931 9.68667 422.944 9.91333 422.944 10.22V17.22C422.944 17.5267 422.931 17.76 422.904 17.92C422.891 18.0667 422.838 18.24 422.744 18.44C422.558 18.7867 422.098 18.96 421.364 18.96C420.644 18.96 420.158 18.8733 419.904 18.7C419.664 18.5133 419.524 18.2467 419.484 17.9C418.991 18.6067 418.164 18.96 417.004 18.96C415.858 18.96 414.791 18.4333 413.804 17.38C412.818 16.3267 412.324 15.1067 412.324 13.72C412.324 12.32 412.818 11.1 413.804 10.06C414.804 9.00667 415.898 8.48 417.084 8.48C417.538 8.48 417.951 8.56 418.324 8.72C418.698 8.88 418.958 9.03333 419.104 9.18C419.251 9.31333 419.371 9.44667 419.464 9.58ZM415.824 13.74C415.824 14.18 415.998 14.58 416.344 14.94C416.691 15.2867 417.111 15.46 417.604 15.46C418.098 15.46 418.504 15.28 418.824 14.92C419.158 14.56 419.324 14.1667 419.324 13.74C419.324 13.3 419.164 12.8933 418.844 12.52C418.538 12.1467 418.118 11.96 417.584 11.96C417.064 11.96 416.638 12.1467 416.304 12.52C415.984 12.8933 415.824 13.3 415.824 13.74ZM430.398 8.46C431.732 8.46 432.838 8.97333 433.718 10C434.612 11.0133 435.058 12.2533 435.058 13.72V17.24C435.058 17.5467 435.045 17.78 435.018 17.94C435.005 18.0867 434.952 18.2533 434.858 18.44C434.672 18.8 434.152 18.98 433.298 18.98C432.352 18.98 431.805 18.7333 431.658 18.24C431.578 18.0133 431.538 17.6733 431.538 17.22V13.7C431.538 13.1533 431.378 12.7267 431.058 12.42C430.752 12.1133 430.332 11.96 429.798 11.96C429.278 11.96 428.852 12.12 428.518 12.44C428.198 12.76 428.038 13.18 428.038 13.7V17.24C428.038 17.5467 428.025 17.78 427.998 17.94C427.985 18.0867 427.925 18.2533 427.818 18.44C427.645 18.8 427.132 18.98 426.278 18.98C425.438 18.98 424.925 18.8 424.738 18.44C424.645 18.24 424.585 18.0667 424.558 17.92C424.545 17.76 424.538 17.5267 424.538 17.22V10.14C424.538 9.84667 424.545 9.62667 424.558 9.48C424.585 9.32 424.652 9.14667 424.758 8.96C424.945 8.62667 425.458 8.46 426.298 8.46C427.112 8.46 427.612 8.61333 427.798 8.92C427.932 9.14667 427.998 9.42 427.998 9.74C428.052 9.64667 428.172 9.51333 428.358 9.34C428.545 9.16667 428.725 9.02667 428.898 8.92C429.352 8.61333 429.852 8.46 430.398 8.46ZM436.747 18.06C436.494 17.9 436.367 17.6467 436.367 17.3C436.367 16.9533 436.621 16.4267 437.127 15.72C437.274 15.4933 437.507 15.38 437.827 15.38C438.161 15.38 438.607 15.5467 439.167 15.88C439.727 16.2 440.234 16.36 440.687 16.36C441.501 16.36 441.907 16.2 441.907 15.88C441.907 15.6267 441.461 15.44 440.567 15.32C439.727 15.2 438.894 14.8867 438.067 14.38C437.681 14.14 437.361 13.7667 437.107 13.26C436.854 12.74 436.727 12.1267 436.727 11.42C436.727 9.31333 438.174 8.26 441.067 8.26C442.014 8.26 442.987 8.48667 443.987 8.94C444.454 9.15333 444.687 9.42 444.687 9.74C444.687 10.06 444.541 10.4533 444.247 10.92C443.954 11.3867 443.654 11.62 443.347 11.62C443.187 11.62 442.887 11.52 442.447 11.32C442.021 11.12 441.554 11.02 441.047 11.02C440.261 11.02 439.867 11.1667 439.867 11.46C439.867 11.86 440.321 12.12 441.227 12.24C442.107 12.3333 442.961 12.5867 443.787 13C444.174 13.1867 444.494 13.5133 444.747 13.98C445.014 14.4333 445.147 15.0067 445.147 15.7C445.147 16.3933 445.014 16.9867 444.747 17.48C444.494 17.96 444.134 18.32 443.667 18.56C442.814 18.9733 441.741 19.18 440.447 19.18C439.167 19.18 437.934 18.8067 436.747 18.06ZM451.511 5.26C451.511 4.95333 451.518 4.72667 451.531 4.58C451.558 4.42 451.618 4.24 451.711 4.04C451.898 3.68 452.418 3.5 453.271 3.5C454.084 3.5 454.591 3.68 454.791 4.04C454.898 4.24 454.958 4.42 454.971 4.58C454.998 4.74 455.011 4.97333 455.011 5.28V14.54C455.011 15.02 455.051 15.3267 455.131 15.46C455.211 15.58 455.384 15.64 455.651 15.64C455.931 15.64 456.118 15.6533 456.211 15.68C456.304 15.6933 456.418 15.7467 456.551 15.84C456.818 16.0133 456.951 16.4867 456.951 17.26C456.951 18.1 456.818 18.6133 456.551 18.8C456.204 19.04 455.378 19.08 454.071 18.92C453.044 18.7867 452.378 18.4467 452.071 17.9C451.698 17.2467 451.511 16.2067 451.511 14.78V5.26ZM468.019 12.48C468.019 13.2933 467.812 13.9 467.399 14.3C466.999 14.6867 466.552 14.88 466.059 14.88H461.319C461.319 15.2533 461.539 15.5667 461.979 15.82C462.419 16.0733 462.859 16.2 463.299 16.2C464.072 16.2 464.679 16.12 465.119 15.96L465.339 15.88C465.659 15.7333 465.925 15.66 466.139 15.66C466.565 15.66 466.932 15.96 467.239 16.56C467.412 16.92 467.499 17.2267 467.499 17.48C467.499 18.6667 466.079 19.26 463.239 19.26C462.252 19.26 461.372 19.0933 460.599 18.76C459.839 18.4133 459.245 17.96 458.819 17.4C457.979 16.32 457.559 15.1133 457.559 13.78C457.559 12.1 458.099 10.76 459.179 9.76C460.272 8.74667 461.632 8.24 463.259 8.24C465.112 8.24 466.472 8.89333 467.339 10.2C467.792 10.8933 468.019 11.6533 468.019 12.48ZM463.799 13.06C464.305 13.06 464.559 12.8467 464.559 12.42C464.559 12.1133 464.439 11.8667 464.199 11.68C463.972 11.4933 463.639 11.4 463.199 11.4C462.772 11.4 462.345 11.58 461.919 11.94C461.492 12.2867 461.279 12.66 461.279 13.06H463.799Z" fill="#46BAD3"/>
<path d="M177 21H468.519V22H177V21Z" fill="#46BAD3"/>
<path d="M168.935 61.595C172.278 65.5617 173.95 70.01 173.95 74.94C173.836 80.6067 171.881 85.3667 168.085 89.22C164.345 93.0167 159.783 94.915 154.4 94.915H132.045C128.078 94.915 125.755 93.8383 125.075 91.685C124.735 90.7217 124.565 89.2483 124.565 87.265V40.09C124.565 38.73 124.593 37.7383 124.65 37.115C124.763 36.4917 125.046 35.755 125.5 34.905C126.293 33.375 128.503 32.61 132.13 32.61H153.55C158.763 32.61 163.126 34.4233 166.64 38.05C170.323 41.7333 172.165 46.1533 172.165 51.31C172.165 55.05 171.088 58.4783 168.935 61.595ZM158.905 74.09C158.905 72.73 158.735 71.6533 158.395 70.86C158.111 70.0667 157.601 69.5 156.865 69.16C155.731 68.7067 154.145 68.48 152.105 68.48C150.065 68.48 148.535 68.0833 147.515 67.29C146.495 66.4967 145.985 64.8817 145.985 62.445C145.985 59.9517 146.495 58.3083 147.515 57.515C148.591 56.7217 150.348 56.325 152.785 56.325C155.051 56.325 156.411 55.73 156.865 54.54C157.035 53.9167 157.12 52.8967 157.12 51.48C157.12 50.0633 156.638 49.0717 155.675 48.505C154.768 47.9383 153.38 47.655 151.51 47.655H139.61V79.87H153.55C157.12 79.87 158.905 77.9433 158.905 74.09ZM222.696 67.29C222.696 70.7467 221.817 73.325 220.061 75.025C218.361 76.6683 216.462 77.49 214.366 77.49H194.221C194.221 79.0767 195.156 80.4083 197.026 81.485C198.896 82.5617 200.766 83.1 202.636 83.1C205.922 83.1 208.501 82.76 210.371 82.08L211.306 81.74C212.666 81.1167 213.799 80.805 214.706 80.805C216.519 80.805 218.077 82.08 219.381 84.63C220.117 86.16 220.486 87.4633 220.486 88.54C220.486 93.5833 214.451 96.105 202.381 96.105C198.187 96.105 194.447 95.3967 191.161 93.98C187.931 92.5067 185.409 90.58 183.596 88.2C180.026 83.61 178.241 78.4817 178.241 72.815C178.241 65.675 180.536 59.98 185.126 55.73C189.772 51.4233 195.552 49.27 202.466 49.27C210.342 49.27 216.122 52.0467 219.806 57.6C221.732 60.5467 222.696 63.7767 222.696 67.29ZM204.761 69.755C206.914 69.755 207.991 68.8483 207.991 67.035C207.991 65.7317 207.481 64.6833 206.461 63.89C205.497 63.0967 204.081 62.7 202.211 62.7C200.397 62.7 198.584 63.465 196.771 64.995C194.957 66.4683 194.051 68.055 194.051 69.755H204.761ZM228.581 91.005C227.505 90.325 226.966 89.2483 226.966 87.775C226.966 86.3017 228.043 84.0633 230.196 81.06C230.82 80.0967 231.811 79.615 233.171 79.615C234.588 79.615 236.486 80.3233 238.866 81.74C241.246 83.1 243.4 83.78 245.326 83.78C248.783 83.78 250.511 83.1 250.511 81.74C250.511 80.6633 248.613 79.87 244.816 79.36C241.246 78.85 237.705 77.5183 234.191 75.365C232.548 74.345 231.188 72.7583 230.111 70.605C229.035 68.395 228.496 65.7883 228.496 62.785C228.496 53.8317 234.645 49.355 246.941 49.355C250.965 49.355 255.101 50.3183 259.351 52.245C261.335 53.1517 262.326 54.285 262.326 55.645C262.326 57.005 261.703 58.6767 260.456 60.66C259.21 62.6433 257.935 63.635 256.631 63.635C255.951 63.635 254.676 63.21 252.806 62.36C250.993 61.51 249.01 61.085 246.856 61.085C243.513 61.085 241.841 61.7083 241.841 62.955C241.841 64.655 243.768 65.76 247.621 66.27C251.361 66.6667 254.988 67.7433 258.501 69.5C260.145 70.2933 261.505 71.6817 262.581 73.665C263.715 75.5917 264.281 78.0283 264.281 80.975C264.281 83.9217 263.715 86.4433 262.581 88.54C261.505 90.58 259.975 92.11 257.991 93.13C254.365 94.8867 249.803 95.765 244.306 95.765C238.866 95.765 233.625 94.1783 228.581 91.005ZM294.51 65.25L288.985 64.91V76.64C288.985 78.17 289.212 79.275 289.665 79.955C290.175 80.635 291.082 80.975 292.385 80.975C293.745 80.975 294.765 81.0317 295.445 81.145C296.182 81.2017 296.947 81.4567 297.74 81.91C299.043 82.6467 299.695 84.545 299.695 87.605C299.695 91.175 298.902 93.3567 297.315 94.15C296.465 94.5467 295.7 94.8017 295.02 94.915C294.397 94.9717 293.462 95 292.215 95C286.322 95 281.845 93.6683 278.785 91.005C275.725 88.3417 274.195 83.8367 274.195 77.49V64.91C273.118 65.08 271.957 65.165 270.71 65.165C269.463 65.165 268.415 64.6833 267.565 63.72C266.772 62.7567 266.375 61.1133 266.375 58.79C266.375 56.4667 266.517 54.795 266.8 53.775C267.083 52.6983 267.48 51.9333 267.99 51.48C268.897 50.7433 270.03 50.375 271.39 50.375L274.195 50.715V41.96C274.195 40.6567 274.223 39.6933 274.28 39.07C274.393 38.4467 274.677 37.7667 275.13 37.03C275.867 35.6133 278.048 34.905 281.675 34.905C285.528 34.905 287.823 35.9533 288.56 38.05C288.843 38.9567 288.985 40.4017 288.985 42.385V50.715C291.478 50.4883 293.348 50.375 294.595 50.375C295.898 50.375 296.862 50.4317 297.485 50.545C298.165 50.6017 298.93 50.8567 299.78 51.31C301.253 52.0467 301.99 54.2283 301.99 57.855C301.99 61.425 301.225 63.6067 299.695 64.4C298.845 64.7967 298.08 65.0517 297.4 65.165C296.777 65.2217 295.813 65.25 294.51 65.25ZM306.684 57.685C306.684 56.3817 306.712 55.4183 306.769 54.795C306.882 54.115 307.137 53.35 307.534 52.5C308.327 51.0267 310.537 50.29 314.164 50.29C316.884 50.29 318.81 50.7717 319.944 51.735C320.907 52.5283 321.417 53.7467 321.474 55.39C321.53 55.9567 321.559 56.7783 321.559 57.855V87.605C321.559 88.9083 321.502 89.9 321.389 90.58C321.332 91.2033 321.077 91.94 320.624 92.79C319.887 94.2633 317.705 95 314.079 95C310.509 95 308.327 94.235 307.534 92.705C307.137 91.855 306.882 91.1183 306.769 90.495C306.712 89.8717 306.684 88.88 306.684 87.52V57.685ZM320.624 41.96C320.227 42.7533 319.49 43.32 318.414 43.66C317.337 44 315.892 44.17 314.079 44.17C312.322 44.17 310.905 44 309.829 43.66C308.752 43.32 307.987 42.725 307.534 41.875C307.137 41.025 306.882 40.2883 306.769 39.665C306.712 38.985 306.684 37.9933 306.684 36.69C306.684 35.3867 306.712 34.4233 306.769 33.8C306.882 33.12 307.137 32.3833 307.534 31.59C308.327 30.06 310.537 29.295 314.164 29.295C317.734 29.295 319.887 30.06 320.624 31.59C321.077 32.44 321.332 33.205 321.389 33.885C321.502 34.5083 321.559 35.4717 321.559 36.775C321.559 38.0783 321.502 39.07 321.389 39.75C321.332 40.3733 321.077 41.11 320.624 41.96ZM357.419 54.965C357.759 51.7917 359.997 50.205 364.134 50.205C366.344 50.205 367.987 50.375 369.064 50.715C370.14 51.055 370.877 51.65 371.274 52.5C371.727 53.35 371.982 54.115 372.039 54.795C372.152 55.4183 372.209 56.3817 372.209 57.685V87.435C372.209 88.7383 372.152 89.73 372.039 90.41C371.982 91.0333 371.755 91.77 371.359 92.62C370.565 94.0933 368.61 94.83 365.494 94.83C362.434 94.83 360.365 94.4617 359.289 93.725C358.269 92.9317 357.674 91.7983 357.504 90.325C355.407 93.3283 351.894 94.83 346.964 94.83C342.09 94.83 337.557 92.5917 333.364 88.115C329.17 83.6383 327.074 78.4533 327.074 72.56C327.074 66.61 329.17 61.425 333.364 57.005C337.614 52.5283 342.26 50.29 347.304 50.29C349.23 50.29 350.987 50.63 352.574 51.31C354.16 51.99 355.265 52.6417 355.889 53.265C356.512 53.8317 357.022 54.3983 357.419 54.965ZM341.949 72.645C341.949 74.515 342.685 76.215 344.159 77.745C345.632 79.2183 347.417 79.955 349.514 79.955C351.61 79.955 353.339 79.19 354.699 77.66C356.115 76.13 356.824 74.4583 356.824 72.645C356.824 70.775 356.144 69.0467 354.784 67.46C353.48 65.8733 351.695 65.08 349.429 65.08C347.219 65.08 345.405 65.8733 343.989 67.46C342.629 69.0467 341.949 70.775 341.949 72.645ZM378.983 57.685C378.983 56.3817 379.012 55.4183 379.068 54.795C379.182 54.115 379.437 53.35 379.833 52.5C380.627 51.0267 382.837 50.29 386.463 50.29C389.183 50.29 391.11 50.7717 392.243 51.735C393.207 52.5283 393.717 53.7467 393.773 55.39C393.83 55.9567 393.858 56.7783 393.858 57.855V87.605C393.858 88.9083 393.802 89.9 393.688 90.58C393.632 91.2033 393.377 91.94 392.923 92.79C392.187 94.2633 390.005 95 386.378 95C382.808 95 380.627 94.235 379.833 92.705C379.437 91.855 379.182 91.1183 379.068 90.495C379.012 89.8717 378.983 88.88 378.983 87.52V57.685ZM392.923 41.96C392.527 42.7533 391.79 43.32 390.713 43.66C389.637 44 388.192 44.17 386.378 44.17C384.622 44.17 383.205 44 382.128 43.66C381.052 43.32 380.287 42.725 379.833 41.875C379.437 41.025 379.182 40.2883 379.068 39.665C379.012 38.985 378.983 37.9933 378.983 36.69C378.983 35.3867 379.012 34.4233 379.068 33.8C379.182 33.12 379.437 32.3833 379.833 31.59C380.627 30.06 382.837 29.295 386.463 29.295C390.033 29.295 392.187 30.06 392.923 31.59C393.377 32.44 393.632 33.205 393.688 33.885C393.802 34.5083 393.858 35.4717 393.858 36.775C393.858 38.0783 393.802 39.07 393.688 39.75C393.632 40.3733 393.377 41.11 392.923 41.96ZM431.079 50.715C432.155 51.055 433.034 51.65 433.714 52.5C434.45 53.2933 434.819 54.5967 434.819 56.41C434.819 58.2233 434.28 60.2067 433.204 62.36C432.127 64.5133 430.569 65.59 428.529 65.59C427.509 65.59 426.517 65.3633 425.554 64.91C424.647 64.4567 423.429 64.23 421.899 64.23C420.369 64.23 418.924 64.7683 417.564 65.845C416.26 66.9217 415.609 68.225 415.609 69.755V87.605C415.609 88.9083 415.552 89.9 415.439 90.58C415.382 91.2033 415.127 91.94 414.674 92.79C413.824 94.2633 411.614 95 408.044 95C405.324 95 403.369 94.5183 402.179 93.555C401.272 92.7617 400.762 91.5433 400.649 89.9C400.649 89.3333 400.649 88.5117 400.649 87.435V57.6C400.649 56.2967 400.677 55.3333 400.734 54.71C400.847 54.03 401.102 53.2933 401.499 52.5C402.292 50.97 404.502 50.205 408.129 50.205C411.529 50.205 413.654 50.8567 414.504 52.16C415.127 53.0667 415.439 54.0017 415.439 54.965C415.722 54.5683 416.119 54.0867 416.629 53.52C417.195 52.9533 418.357 52.1883 420.114 51.225C421.87 50.2617 423.4 49.78 424.704 49.78C426.064 49.78 427.197 49.865 428.104 50.035C429.01 50.1483 430.002 50.375 431.079 50.715ZM480.103 67.29C480.103 70.7467 479.225 73.325 477.468 75.025C475.768 76.6683 473.87 77.49 471.773 77.49H451.628C451.628 79.0767 452.563 80.4083 454.433 81.485C456.303 82.5617 458.173 83.1 460.043 83.1C463.33 83.1 465.908 82.76 467.778 82.08L468.713 81.74C470.073 81.1167 471.206 80.805 472.113 80.805C473.926 80.805 475.485 82.08 476.788 84.63C477.525 86.16 477.893 87.4633 477.893 88.54C477.893 93.5833 471.858 96.105 459.788 96.105C455.595 96.105 451.855 95.3967 448.568 93.98C445.338 92.5067 442.816 90.58 441.003 88.2C437.433 83.61 435.648 78.4817 435.648 72.815C435.648 65.675 437.943 59.98 442.533 55.73C447.18 51.4233 452.96 49.27 459.873 49.27C467.75 49.27 473.53 52.0467 477.213 57.6C479.14 60.5467 480.103 63.7767 480.103 67.29ZM462.168 69.755C464.321 69.755 465.398 68.8483 465.398 67.035C465.398 65.7317 464.888 64.6833 463.868 63.89C462.905 63.0967 461.488 62.7 459.618 62.7C457.805 62.7 455.991 63.465 454.178 64.995C452.365 66.4683 451.458 68.055 451.458 69.755H462.168ZM485.989 91.005C484.912 90.325 484.374 89.2483 484.374 87.775C484.374 86.3017 485.45 84.0633 487.604 81.06C488.227 80.0967 489.219 79.615 490.579 79.615C491.995 79.615 493.894 80.3233 496.274 81.74C498.654 83.1 500.807 83.78 502.734 83.78C506.19 83.78 507.919 83.1 507.919 81.74C507.919 80.6633 506.02 79.87 502.224 79.36C498.654 78.85 495.112 77.5183 491.599 75.365C489.955 74.345 488.595 72.7583 487.519 70.605C486.442 68.395 485.904 65.7883 485.904 62.785C485.904 53.8317 492.052 49.355 504.349 49.355C508.372 49.355 512.509 50.3183 516.759 52.245C518.742 53.1517 519.734 54.285 519.734 55.645C519.734 57.005 519.11 58.6767 517.864 60.66C516.617 62.6433 515.342 63.635 514.039 63.635C513.359 63.635 512.084 63.21 510.214 62.36C508.4 61.51 506.417 61.085 504.264 61.085C500.92 61.085 499.249 61.7083 499.249 62.955C499.249 64.655 501.175 65.76 505.029 66.27C508.769 66.6667 512.395 67.7433 515.909 69.5C517.552 70.2933 518.912 71.6817 519.989 73.665C521.122 75.5917 521.689 78.0283 521.689 80.975C521.689 83.9217 521.122 86.4433 519.989 88.54C518.912 90.58 517.382 92.11 515.399 93.13C511.772 94.8867 507.21 95.765 501.714 95.765C496.274 95.765 491.032 94.1783 485.989 91.005Z" fill="white"/>
<path d="M39.5376 125.115L62.4876 172.545C63.451 174.472 63.9326 175.917 63.9326 176.88C63.9326 178.92 62.2893 180.762 59.0026 182.405C57.076 183.368 55.546 183.85 54.4126 183.85C53.336 183.85 52.4293 183.595 51.6926 183.085C51.0126 182.575 50.5026 182.037 50.1626 181.47C49.8793 180.903 49.4543 180.053 48.8876 178.92L44.4676 169.74H20.9226L16.5026 178.92C15.936 180.053 15.4826 180.875 15.1426 181.385C14.8593 181.895 14.3493 182.433 13.6126 183C12.9326 183.51 12.026 183.765 10.8926 183.765C9.81595 183.765 8.31428 183.283 6.38762 182.32C3.10095 180.733 1.45762 178.92 1.45762 176.88C1.45762 175.917 1.93928 174.472 2.90262 172.545L25.8526 125.03C26.476 123.727 27.411 122.678 28.6576 121.885C29.961 121.092 31.321 120.695 32.7376 120.695C35.7976 120.695 38.0643 122.168 39.5376 125.115ZM32.6526 145.515L27.0426 157.16H38.3476L32.6526 145.515ZM103.503 139.225C106.449 140.982 107.923 142.852 107.923 144.835C107.923 145.968 107.356 147.527 106.223 149.51L88.6278 179.685C88.0611 180.648 87.1544 181.527 85.9078 182.32C84.6611 183.057 83.4144 183.425 82.1678 183.425C80.9778 183.425 79.8161 183.142 78.6828 182.575C77.6061 181.952 76.8411 181.328 76.3878 180.705L75.6228 179.77L57.9428 149.51C56.8094 147.64 56.2428 146.11 56.2428 144.92C56.2428 142.88 57.7161 140.982 60.6628 139.225C62.8161 137.978 64.5161 137.355 65.7628 137.355C67.0094 137.355 67.9728 137.752 68.6528 138.545C69.3894 139.282 70.1544 140.415 70.9478 141.945L82.0828 163.365L93.2178 141.945C93.8411 140.868 94.2944 140.103 94.5778 139.65C94.9178 139.14 95.4278 138.658 96.1078 138.205C96.7878 137.695 97.6944 137.44 98.8278 137.44C99.9611 137.44 101.519 138.035 103.503 139.225ZM153.179 155.29C153.179 158.747 152.3 161.325 150.544 163.025C148.844 164.668 146.945 165.49 144.849 165.49H124.704C124.704 167.077 125.639 168.408 127.509 169.485C129.379 170.562 131.249 171.1 133.119 171.1C136.405 171.1 138.984 170.76 140.854 170.08L141.789 169.74C143.149 169.117 144.282 168.805 145.189 168.805C147.002 168.805 148.56 170.08 149.864 172.63C150.6 174.16 150.969 175.463 150.969 176.54C150.969 181.583 144.934 184.105 132.864 184.105C128.67 184.105 124.93 183.397 121.644 181.98C118.414 180.507 115.892 178.58 114.079 176.2C110.509 171.61 108.724 166.482 108.724 160.815C108.724 153.675 111.019 147.98 115.609 143.73C120.255 139.423 126.035 137.27 132.949 137.27C140.825 137.27 146.605 140.047 150.289 145.6C152.215 148.547 153.179 151.777 153.179 155.29ZM135.244 157.755C137.397 157.755 138.474 156.848 138.474 155.035C138.474 153.732 137.964 152.683 136.944 151.89C135.98 151.097 134.564 150.7 132.694 150.7C130.88 150.7 129.067 151.465 127.254 152.995C125.44 154.468 124.534 156.055 124.534 157.755H135.244ZM183.629 138.205C189.296 138.205 193.999 140.387 197.739 144.75C201.536 149.057 203.434 154.327 203.434 160.56V175.52C203.434 176.823 203.378 177.815 203.264 178.495C203.208 179.118 202.981 179.827 202.584 180.62C201.791 182.15 199.581 182.915 195.954 182.915C191.931 182.915 189.608 181.867 188.984 179.77C188.644 178.807 188.474 177.362 188.474 175.435V160.475C188.474 158.152 187.794 156.338 186.434 155.035C185.131 153.732 183.346 153.08 181.079 153.08C178.869 153.08 177.056 153.76 175.639 155.12C174.279 156.48 173.599 158.265 173.599 160.475V175.52C173.599 176.823 173.543 177.815 173.429 178.495C173.373 179.118 173.118 179.827 172.664 180.62C171.928 182.15 169.746 182.915 166.119 182.915C162.549 182.915 160.368 182.15 159.574 180.62C159.178 179.77 158.923 179.033 158.809 178.41C158.753 177.73 158.724 176.738 158.724 175.435V145.345C158.724 144.098 158.753 143.163 158.809 142.54C158.923 141.86 159.206 141.123 159.659 140.33C160.453 138.913 162.634 138.205 166.204 138.205C169.661 138.205 171.786 138.857 172.579 140.16C173.146 141.123 173.429 142.285 173.429 143.645C173.656 143.248 174.166 142.682 174.959 141.945C175.753 141.208 176.518 140.613 177.254 140.16C179.181 138.857 181.306 138.205 183.629 138.205ZM235.452 153.25L229.927 152.91V164.64C229.927 166.17 230.154 167.275 230.607 167.955C231.117 168.635 232.024 168.975 233.327 168.975C234.687 168.975 235.707 169.032 236.387 169.145C237.124 169.202 237.889 169.457 238.682 169.91C239.985 170.647 240.637 172.545 240.637 175.605C240.637 179.175 239.844 181.357 238.257 182.15C237.407 182.547 236.642 182.802 235.962 182.915C235.339 182.972 234.404 183 233.157 183C227.264 183 222.787 181.668 219.727 179.005C216.667 176.342 215.137 171.837 215.137 165.49V152.91C214.06 153.08 212.899 153.165 211.652 153.165C210.405 153.165 209.357 152.683 208.507 151.72C207.714 150.757 207.317 149.113 207.317 146.79C207.317 144.467 207.459 142.795 207.742 141.775C208.025 140.698 208.422 139.933 208.932 139.48C209.839 138.743 210.972 138.375 212.332 138.375L215.137 138.715V129.96C215.137 128.657 215.165 127.693 215.222 127.07C215.335 126.447 215.619 125.767 216.072 125.03C216.809 123.613 218.99 122.905 222.617 122.905C226.47 122.905 228.765 123.953 229.502 126.05C229.785 126.957 229.927 128.402 229.927 130.385V138.715C232.42 138.488 234.29 138.375 235.537 138.375C236.84 138.375 237.804 138.432 238.427 138.545C239.107 138.602 239.872 138.857 240.722 139.31C242.195 140.047 242.932 142.228 242.932 145.855C242.932 149.425 242.167 151.607 240.637 152.4C239.787 152.797 239.022 153.052 238.342 153.165C237.719 153.222 236.755 153.25 235.452 153.25ZM267.516 182.83C261.792 182.83 257.032 180.677 253.236 176.37C249.496 172.007 247.626 166.708 247.626 160.475V145.6C247.626 144.24 247.654 143.248 247.711 142.625C247.824 142.002 248.079 141.265 248.476 140.415C249.269 138.885 251.479 138.12 255.106 138.12C259.072 138.12 261.396 139.197 262.076 141.35C262.416 142.257 262.586 143.702 262.586 145.685V160.56C262.586 162.883 263.237 164.697 264.541 166C265.901 167.303 267.686 167.955 269.896 167.955C272.162 167.955 273.976 167.275 275.336 165.915C276.752 164.555 277.461 162.77 277.461 160.56V145.515C277.461 144.212 277.489 143.248 277.546 142.625C277.659 141.945 277.942 141.18 278.396 140.33C279.132 138.857 281.314 138.12 284.941 138.12C288.511 138.12 290.692 138.885 291.486 140.415C291.882 141.265 292.109 142.03 292.166 142.71C292.279 143.333 292.336 144.297 292.336 145.6V175.69C292.336 176.937 292.279 177.9 292.166 178.58C292.109 179.203 291.854 179.912 291.401 180.705C290.551 182.178 288.369 182.915 284.856 182.915C281.399 182.915 279.274 182.235 278.481 180.875C277.914 179.912 277.631 178.75 277.631 177.39C277.404 177.787 276.894 178.353 276.101 179.09C275.307 179.827 274.542 180.45 273.806 180.96C271.879 182.207 269.782 182.83 267.516 182.83ZM329.603 138.715C330.68 139.055 331.558 139.65 332.238 140.5C332.975 141.293 333.343 142.597 333.343 144.41C333.343 146.223 332.805 148.207 331.728 150.36C330.652 152.513 329.093 153.59 327.053 153.59C326.033 153.59 325.042 153.363 324.078 152.91C323.172 152.457 321.953 152.23 320.423 152.23C318.893 152.23 317.448 152.768 316.088 153.845C314.785 154.922 314.133 156.225 314.133 157.755V175.605C314.133 176.908 314.077 177.9 313.963 178.58C313.907 179.203 313.652 179.94 313.198 180.79C312.348 182.263 310.138 183 306.568 183C303.848 183 301.893 182.518 300.703 181.555C299.797 180.762 299.287 179.543 299.173 177.9C299.173 177.333 299.173 176.512 299.173 175.435V145.6C299.173 144.297 299.202 143.333 299.258 142.71C299.372 142.03 299.627 141.293 300.023 140.5C300.817 138.97 303.027 138.205 306.653 138.205C310.053 138.205 312.178 138.857 313.028 140.16C313.652 141.067 313.963 142.002 313.963 142.965C314.247 142.568 314.643 142.087 315.153 141.52C315.72 140.953 316.882 140.188 318.638 139.225C320.395 138.262 321.925 137.78 323.228 137.78C324.588 137.78 325.722 137.865 326.628 138.035C327.535 138.148 328.527 138.375 329.603 138.715ZM378.628 155.29C378.628 158.747 377.75 161.325 375.993 163.025C374.293 164.668 372.395 165.49 370.298 165.49H350.153C350.153 167.077 351.088 168.408 352.958 169.485C354.828 170.562 356.698 171.1 358.568 171.1C361.855 171.1 364.433 170.76 366.303 170.08L367.238 169.74C368.598 169.117 369.731 168.805 370.638 168.805C372.451 168.805 374.01 170.08 375.313 172.63C376.05 174.16 376.418 175.463 376.418 176.54C376.418 181.583 370.383 184.105 358.313 184.105C354.12 184.105 350.38 183.397 347.093 181.98C343.863 180.507 341.341 178.58 339.528 176.2C335.958 171.61 334.173 166.482 334.173 160.815C334.173 153.675 336.468 147.98 341.058 143.73C345.705 139.423 351.485 137.27 358.398 137.27C366.275 137.27 372.055 140.047 375.738 145.6C377.665 148.547 378.628 151.777 378.628 155.29ZM360.693 157.755C362.846 157.755 363.923 156.848 363.923 155.035C363.923 153.732 363.413 152.683 362.393 151.89C361.43 151.097 360.013 150.7 358.143 150.7C356.33 150.7 354.516 151.465 352.703 152.995C350.89 154.468 349.983 156.055 349.983 157.755H360.693ZM457.182 183.085C452.252 183.085 447.379 181.81 442.562 179.26C437.179 182.207 431.739 183.68 426.242 183.68C411.679 183.68 404.397 177.617 404.397 165.49C404.397 159.2 407.656 153.363 414.172 147.98C411.906 142.937 410.772 138.375 410.772 134.295C410.772 128.628 412.472 124.435 415.872 121.715C419.272 118.995 423.834 117.635 429.557 117.635C435.281 117.635 439.616 118.995 442.562 121.715C445.509 124.435 446.982 128.147 446.982 132.85C446.982 136.817 445.367 140.387 442.137 143.56C439.757 145.94 436.414 148.575 432.107 151.465C435.451 155.885 439.077 159.625 442.987 162.685C444.574 160.248 445.679 157.755 446.302 155.205C446.869 152.712 449.419 151.465 453.952 151.465C455.879 151.465 457.324 151.72 458.287 152.23C459.307 152.74 459.874 153.278 459.987 153.845C460.157 154.355 460.214 155.035 460.157 155.885C459.931 160.192 458.174 164.47 454.887 168.72C455.737 168.89 456.531 168.975 457.267 168.975C461.687 168.975 463.897 171.213 463.897 175.69C463.897 178.807 463.387 180.818 462.367 181.725C461.347 182.632 459.619 183.085 457.182 183.085ZM424.202 133.275C424.202 135.315 424.684 137.61 425.647 140.16C428.311 138.46 430.294 137.043 431.597 135.91C432.957 134.777 433.637 133.7 433.637 132.68C433.637 130.187 432.249 128.94 429.472 128.94C425.959 128.94 424.202 130.385 424.202 133.275ZM426.837 171.1C428.254 171.1 429.529 170.987 430.662 170.76C427.376 167.813 424.259 164.3 421.312 160.22C420.009 161.863 419.357 163.563 419.357 165.32C419.357 169.173 421.851 171.1 426.837 171.1ZM504.78 160.645C504.78 163.025 505.574 164.895 507.16 166.255C508.747 167.558 510.419 168.21 512.175 168.21C513.989 168.21 515.66 167.7 517.19 166.68C518.777 165.603 520.052 165.065 521.015 165.065C522.715 165.065 524.784 166.567 527.22 169.57C528.524 171.213 529.175 172.687 529.175 173.99C529.175 176.143 527.617 178.155 524.5 180.025C521.27 182.292 517.304 183.425 512.6 183.425C507.33 183.425 502.259 181.527 497.385 177.73C495.062 175.917 493.164 173.508 491.69 170.505C490.217 167.445 489.48 164.102 489.48 160.475C489.48 156.792 490.217 153.477 491.69 150.53C493.164 147.527 495.062 145.118 497.385 143.305C502.089 139.565 507.104 137.695 512.43 137.695C514.584 137.695 516.68 138.007 518.72 138.63C520.76 139.197 522.262 139.763 523.225 140.33L524.585 141.18C525.605 141.86 526.399 142.398 526.965 142.795C528.439 143.928 529.175 145.232 529.175 146.705C529.175 148.122 528.58 149.737 527.39 151.55C525.35 154.667 523.395 156.225 521.525 156.225C520.449 156.225 518.919 155.602 516.935 154.355C515.915 153.392 514.442 152.91 512.515 152.91C510.645 152.91 508.889 153.59 507.245 154.95C505.602 156.31 504.78 158.208 504.78 160.645ZM534.667 145.685C534.667 144.382 534.695 143.418 534.752 142.795C534.865 142.115 535.12 141.35 535.517 140.5C536.31 139.027 538.52 138.29 542.147 138.29C544.867 138.29 546.793 138.772 547.927 139.735C548.89 140.528 549.4 141.747 549.457 143.39C549.513 143.957 549.542 144.778 549.542 145.855V175.605C549.542 176.908 549.485 177.9 549.372 178.58C549.315 179.203 549.06 179.94 548.607 180.79C547.87 182.263 545.688 183 542.062 183C538.492 183 536.31 182.235 535.517 180.705C535.12 179.855 534.865 179.118 534.752 178.495C534.695 177.872 534.667 176.88 534.667 175.52V145.685ZM548.607 129.96C548.21 130.753 547.473 131.32 546.397 131.66C545.32 132 543.875 132.17 542.062 132.17C540.305 132.17 538.888 132 537.812 131.66C536.735 131.32 535.97 130.725 535.517 129.875C535.12 129.025 534.865 128.288 534.752 127.665C534.695 126.985 534.667 125.993 534.667 124.69C534.667 123.387 534.695 122.423 534.752 121.8C534.865 121.12 535.12 120.383 535.517 119.59C536.31 118.06 538.52 117.295 542.147 117.295C545.717 117.295 547.87 118.06 548.607 119.59C549.06 120.44 549.315 121.205 549.372 121.885C549.485 122.508 549.542 123.472 549.542 124.775C549.542 126.078 549.485 127.07 549.372 127.75C549.315 128.373 549.06 129.11 548.607 129.96ZM599.512 155.29C599.512 158.747 598.633 161.325 596.877 163.025C595.177 164.668 593.278 165.49 591.182 165.49H571.037C571.037 167.077 571.972 168.408 573.842 169.485C575.712 170.562 577.582 171.1 579.452 171.1C582.738 171.1 585.317 170.76 587.187 170.08L588.122 169.74C589.482 169.117 590.615 168.805 591.522 168.805C593.335 168.805 594.893 170.08 596.197 172.63C596.933 174.16 597.302 175.463 597.302 176.54C597.302 181.583 591.267 184.105 579.197 184.105C575.003 184.105 571.263 183.397 567.977 181.98C564.747 180.507 562.225 178.58 560.412 176.2C556.842 171.61 555.057 166.482 555.057 160.815C555.057 153.675 557.352 147.98 561.942 143.73C566.588 139.423 572.368 137.27 579.282 137.27C587.158 137.27 592.938 140.047 596.622 145.6C598.548 148.547 599.512 151.777 599.512 155.29ZM581.577 157.755C583.73 157.755 584.807 156.848 584.807 155.035C584.807 153.732 584.297 152.683 583.277 151.89C582.313 151.097 580.897 150.7 579.027 150.7C577.213 150.7 575.4 151.465 573.587 152.995C571.773 154.468 570.867 156.055 570.867 157.755H581.577ZM627.406 170.08C627.973 168.947 628.823 168.182 629.956 167.785C631.146 167.388 632.96 167.19 635.396 167.19C637.89 167.19 639.675 167.728 640.751 168.805C641.885 169.882 642.451 171.582 642.451 173.905V175.265C642.451 176.625 642.395 177.645 642.281 178.325C642.225 178.948 641.97 179.713 641.516 180.62C640.61 182.263 638.428 183.085 634.971 183.085C631.571 183.085 629.305 182.547 628.171 181.47C627.095 180.337 626.556 178.183 626.556 175.01C626.556 172.8 626.84 171.157 627.406 170.08ZM638.796 160.135C637.72 160.418 636.275 160.56 634.461 160.56C632.648 160.56 631.203 160.418 630.126 160.135C629.05 159.852 628.285 159.342 627.831 158.605C627.435 157.868 627.18 157.217 627.066 156.65C627.01 156.083 626.981 155.205 626.981 154.015V127.07C626.981 125.88 627.01 125.002 627.066 124.435C627.18 123.812 627.463 123.132 627.916 122.395C628.37 121.658 629.135 121.148 630.211 120.865C631.288 120.525 632.733 120.355 634.546 120.355C636.36 120.355 637.805 120.525 638.881 120.865C639.958 121.148 640.695 121.687 641.091 122.48C641.545 123.217 641.8 123.897 641.856 124.52C641.97 125.087 642.026 125.965 642.026 127.155V154.1C642.026 155.29 641.97 156.168 641.856 156.735C641.8 157.302 641.545 157.953 641.091 158.69C640.638 159.37 639.873 159.852 638.796 160.135Z" fill="white"/>
<path d="M318.189 105.35C318.322 105.1 318.547 104.925 318.864 104.825C319.18 104.725 319.597 104.675 320.114 104.675C320.647 104.675 321.072 104.725 321.389 104.825C321.705 104.925 321.922 105.1 322.039 105.35C322.172 105.6 322.247 105.825 322.264 106.025C322.297 106.208 322.314 106.492 322.314 106.875V121.8C322.314 122.183 322.297 122.475 322.264 122.675C322.247 122.858 322.172 123.067 322.039 123.3C321.789 123.75 321.08 123.975 319.914 123.975C318.764 123.975 318.122 123.567 317.989 122.75C317.289 123.55 316.314 123.95 315.064 123.95C313.564 123.95 312.197 123.3 310.964 122C309.73 120.683 309.114 119.158 309.114 117.425C309.114 115.675 309.73 114.142 310.964 112.825C312.214 111.508 313.58 110.85 315.064 110.85C316.297 110.85 317.255 111.267 317.939 112.1V106.85C317.939 106.467 317.947 106.183 317.964 106C317.997 105.8 318.072 105.583 318.189 105.35ZM314.139 118.925C314.572 119.375 315.097 119.6 315.714 119.6C316.33 119.6 316.839 119.375 317.239 118.925C317.655 118.475 317.864 117.983 317.864 117.45C317.864 116.9 317.664 116.392 317.264 115.925C316.88 115.458 316.355 115.225 315.689 115.225C315.022 115.225 314.489 115.458 314.089 115.925C313.689 116.375 313.489 116.875 313.489 117.425C313.489 117.975 313.705 118.475 314.139 118.925ZM337.005 115.85C337.005 116.867 336.747 117.625 336.23 118.125C335.73 118.608 335.172 118.85 334.555 118.85H328.63C328.63 119.317 328.905 119.708 329.455 120.025C330.005 120.342 330.555 120.5 331.105 120.5C332.072 120.5 332.83 120.4 333.38 120.2L333.655 120.1C334.055 119.917 334.389 119.825 334.655 119.825C335.189 119.825 335.647 120.2 336.03 120.95C336.247 121.4 336.355 121.783 336.355 122.1C336.355 123.583 334.58 124.325 331.03 124.325C329.797 124.325 328.697 124.117 327.73 123.7C326.78 123.267 326.039 122.7 325.505 122C324.455 120.65 323.93 119.142 323.93 117.475C323.93 115.375 324.605 113.7 325.955 112.45C327.322 111.183 329.022 110.55 331.055 110.55C333.372 110.55 335.072 111.367 336.155 113C336.722 113.867 337.005 114.817 337.005 115.85ZM331.73 116.575C332.364 116.575 332.68 116.308 332.68 115.775C332.68 115.392 332.53 115.083 332.23 114.85C331.947 114.617 331.53 114.5 330.98 114.5C330.447 114.5 329.914 114.725 329.38 115.175C328.847 115.608 328.58 116.075 328.58 116.575H331.73Z" fill="white"/>
</svg>
